<?xml version="1.0" encoding="utf-8" standalone="no"?>
<!DOCTYPE svg PUBLIC "-//W3C//DTD SVG 1.1//EN"
  "http://www.w3.org/Graphics/SVG/1.1/DTD/svg11.dtd">
<!-- Created with matplotlib (https://matplotlib.org/) -->
<svg height="321.360312pt" version="1.1" viewBox="0 0 426.425937 321.360312" width="426.425937pt" xmlns="http://www.w3.org/2000/svg" xmlns:xlink="http://www.w3.org/1999/xlink">
 <metadata>
  <rdf:RDF xmlns:cc="http://creativecommons.org/ns#" xmlns:dc="http://purl.org/dc/elements/1.1/" xmlns:rdf="http://www.w3.org/1999/02/22-rdf-syntax-ns#">
   <cc:Work>
    <dc:type rdf:resource="http://purl.org/dc/dcmitype/StillImage"/>
    <dc:date>2022-07-29T12:29:29.165237</dc:date>
    <dc:format>image/svg+xml</dc:format>
    <dc:creator>
     <cc:Agent>
      <dc:title>Matplotlib v3.3.3, https://matplotlib.org/</dc:title>
     </cc:Agent>
    </dc:creator>
   </cc:Work>
  </rdf:RDF>
 </metadata>
 <defs>
  <style type="text/css">*{stroke-linecap:butt;stroke-linejoin:round;}</style>
 </defs>
 <g id="figure_1">
  <g id="patch_1">
   <path d="M 0 321.360312 
L 426.425937 321.360312 
L 426.425937 0 
L 0 0 
z
" style="fill:none;"/>
  </g>
  <g id="axes_1">
   <g id="patch_2">
    <path d="M 50.1775 279 
L 329.1775 279 
L 329.1775 7.2 
L 50.1775 7.2 
z
" style="fill:#ffffff;"/>
   </g>
   <g id="PathCollection_1">
    <defs>
     <path d="M 0 5 
C 1.326016 5 2.597899 4.473168 3.535534 3.535534 
C 4.473168 2.597899 5 1.326016 5 0 
C 5 -1.326016 4.473168 -2.597899 3.535534 -3.535534 
C 2.597899 -4.473168 1.326016 -5 0 -5 
C -1.326016 -5 -2.597899 -4.473168 -3.535534 -3.535534 
C -4.473168 -2.597899 -5 -1.326016 -5 0 
C -5 1.326016 -4.473168 2.597899 -3.535534 3.535534 
C -2.597899 4.473168 -1.326016 5 0 5 
z
" id="m3b0735d05e" style="stroke:#0088ff;stroke-opacity:0.5;stroke-width:2.5;"/>
    </defs>
    <g clip-path="url(#p80b74dccdc)">
     <use style="fill:#0088ff;fill-opacity:0.5;stroke:#0088ff;stroke-opacity:0.5;stroke-width:2.5;" x="64.338557" xlink:href="#m3b0735d05e" y="196.369495"/>
     <use style="fill:#0088ff;fill-opacity:0.5;stroke:#0088ff;stroke-opacity:0.5;stroke-width:2.5;" x="199.150372" xlink:href="#m3b0735d05e" y="196.020783"/>
     <use style="fill:#0088ff;fill-opacity:0.5;stroke:#0088ff;stroke-opacity:0.5;stroke-width:2.5;" x="297.001275" xlink:href="#m3b0735d05e" y="209.55622"/>
     <use style="fill:#0088ff;fill-opacity:0.5;stroke:#0088ff;stroke-opacity:0.5;stroke-width:2.5;" x="67.156692" xlink:href="#m3b0735d05e" y="198.260982"/>
     <use style="fill:#0088ff;fill-opacity:0.5;stroke:#0088ff;stroke-opacity:0.5;stroke-width:2.5;" x="199.456227" xlink:href="#m3b0735d05e" y="198.597245"/>
     <use style="fill:#0088ff;fill-opacity:0.5;stroke:#0088ff;stroke-opacity:0.5;stroke-width:2.5;" x="297.055103" xlink:href="#m3b0735d05e" y="211.428467"/>
     <use style="fill:#0088ff;fill-opacity:0.5;stroke:#0088ff;stroke-opacity:0.5;stroke-width:2.5;" x="62.859318" xlink:href="#m3b0735d05e" y="196.037458"/>
     <use style="fill:#0088ff;fill-opacity:0.5;stroke:#0088ff;stroke-opacity:0.5;stroke-width:2.5;" x="194.05344" xlink:href="#m3b0735d05e" y="199.134897"/>
     <use style="fill:#0088ff;fill-opacity:0.5;stroke:#0088ff;stroke-opacity:0.5;stroke-width:2.5;" x="297.449922" xlink:href="#m3b0735d05e" y="210.007651"/>
    </g>
   </g>
   <g id="PathCollection_2">
    <defs>
     <path d="M 0 5 
C 1.326016 5 2.597899 4.473168 3.535534 3.535534 
C 4.473168 2.597899 5 1.326016 5 0 
C 5 -1.326016 4.473168 -2.597899 3.535534 -3.535534 
C 2.597899 -4.473168 1.326016 -5 0 -5 
C -1.326016 -5 -2.597899 -4.473168 -3.535534 -3.535534 
C -4.473168 -2.597899 -5 -1.326016 -5 0 
C -5 1.326016 -4.473168 2.597899 -3.535534 3.535534 
C -2.597899 4.473168 -1.326016 5 0 5 
z
" id="mc42843d720" style="stroke:#ff6f00;stroke-opacity:0.5;stroke-width:2.5;"/>
    </defs>
    <g clip-path="url(#p80b74dccdc)">
     <use style="fill:#ff6f00;fill-opacity:0.5;stroke:#ff6f00;stroke-opacity:0.5;stroke-width:2.5;" x="91.238574" xlink:href="#mc42843d720" y="58.778978"/>
     <use style="fill:#ff6f00;fill-opacity:0.5;stroke:#ff6f00;stroke-opacity:0.5;stroke-width:2.5;" x="197.022581" xlink:href="#mc42843d720" y="19.554545"/>
     <use style="fill:#ff6f00;fill-opacity:0.5;stroke:#ff6f00;stroke-opacity:0.5;stroke-width:2.5;" x="285.612158" xlink:href="#mc42843d720" y="58.607259"/>
     <use style="fill:#ff6f00;fill-opacity:0.5;stroke:#ff6f00;stroke-opacity:0.5;stroke-width:2.5;" x="93.973193" xlink:href="#mc42843d720" y="57.56102"/>
     <use style="fill:#ff6f00;fill-opacity:0.5;stroke:#ff6f00;stroke-opacity:0.5;stroke-width:2.5;" x="195.570669" xlink:href="#mc42843d720" y="24.236303"/>
     <use style="fill:#ff6f00;fill-opacity:0.5;stroke:#ff6f00;stroke-opacity:0.5;stroke-width:2.5;" x="287.285411" xlink:href="#mc42843d720" y="58.35342"/>
     <use style="fill:#ff6f00;fill-opacity:0.5;stroke:#ff6f00;stroke-opacity:0.5;stroke-width:2.5;" x="91.156125" xlink:href="#mc42843d720" y="57.217576"/>
     <use style="fill:#ff6f00;fill-opacity:0.5;stroke:#ff6f00;stroke-opacity:0.5;stroke-width:2.5;" x="197.517949" xlink:href="#mc42843d720" y="19.639226"/>
     <use style="fill:#ff6f00;fill-opacity:0.5;stroke:#ff6f00;stroke-opacity:0.5;stroke-width:2.5;" x="284.249592" xlink:href="#mc42843d720" y="59.972867"/>
    </g>
   </g>
   <g id="PathCollection_3">
    <defs>
     <path d="M 0 5 
C 1.326016 5 2.597899 4.473168 3.535534 3.535534 
C 4.473168 2.597899 5 1.326016 5 0 
C 5 -1.326016 4.473168 -2.597899 3.535534 -3.535534 
C 2.597899 -4.473168 1.326016 -5 0 -5 
C -1.326016 -5 -2.597899 -4.473168 -3.535534 -3.535534 
C -4.473168 -2.597899 -5 -1.326016 -5 0 
C -5 1.326016 -4.473168 2.597899 -3.535534 3.535534 
C -2.597899 4.473168 -1.326016 5 0 5 
z
" id="md19618865d" style="stroke:#00e883;stroke-opacity:0.5;stroke-width:2.5;"/>
    </defs>
    <g clip-path="url(#p80b74dccdc)">
     <use style="fill:#00e883;fill-opacity:0.5;stroke:#00e883;stroke-opacity:0.5;stroke-width:2.5;" x="76.720287" xlink:href="#md19618865d" y="256.110159"/>
     <use style="fill:#00e883;fill-opacity:0.5;stroke:#00e883;stroke-opacity:0.5;stroke-width:2.5;" x="173.241765" xlink:href="#md19618865d" y="263.495467"/>
     <use style="fill:#00e883;fill-opacity:0.5;stroke:#00e883;stroke-opacity:0.5;stroke-width:2.5;" x="252.077749" xlink:href="#md19618865d" y="266.645455"/>
     <use style="fill:#00e883;fill-opacity:0.5;stroke:#00e883;stroke-opacity:0.5;stroke-width:2.5;" x="80.192048" xlink:href="#md19618865d" y="247.74901"/>
     <use style="fill:#00e883;fill-opacity:0.5;stroke:#00e883;stroke-opacity:0.5;stroke-width:2.5;" x="172.696199" xlink:href="#md19618865d" y="266.056202"/>
     <use style="fill:#00e883;fill-opacity:0.5;stroke:#00e883;stroke-opacity:0.5;stroke-width:2.5;" x="253.906588" xlink:href="#md19618865d" y="266.249132"/>
     <use style="fill:#00e883;fill-opacity:0.5;stroke:#00e883;stroke-opacity:0.5;stroke-width:2.5;" x="77.56358" xlink:href="#md19618865d" y="252.148105"/>
     <use style="fill:#00e883;fill-opacity:0.5;stroke:#00e883;stroke-opacity:0.5;stroke-width:2.5;" x="174.198095" xlink:href="#md19618865d" y="263.054148"/>
     <use style="fill:#00e883;fill-opacity:0.5;stroke:#00e883;stroke-opacity:0.5;stroke-width:2.5;" x="254.030958" xlink:href="#md19618865d" y="266.623278"/>
    </g>
   </g>
   <g id="PathCollection_4">
    <defs>
     <path d="M 0 5 
C 1.326016 5 2.597899 4.473168 3.535534 3.535534 
C 4.473168 2.597899 5 1.326016 5 0 
C 5 -1.326016 4.473168 -2.597899 3.535534 -3.535534 
C 2.597899 -4.473168 1.326016 -5 0 -5 
C -1.326016 -5 -2.597899 -4.473168 -3.535534 -3.535534 
C -4.473168 -2.597899 -5 -1.326016 -5 0 
C -5 1.326016 -4.473168 2.597899 -3.535534 3.535534 
C -2.597899 4.473168 -1.326016 5 0 5 
z
" id="mb1bebbeb86" style="stroke:#ffbf00;stroke-opacity:0.5;stroke-width:2.5;"/>
    </defs>
    <g clip-path="url(#p80b74dccdc)">
     <use style="fill:#ffbf00;fill-opacity:0.5;stroke:#ffbf00;stroke-opacity:0.5;stroke-width:2.5;" x="78.425788" xlink:href="#mb1bebbeb86" y="202.6531"/>
     <use style="fill:#ffbf00;fill-opacity:0.5;stroke:#ffbf00;stroke-opacity:0.5;stroke-width:2.5;" x="204.070058" xlink:href="#mb1bebbeb86" y="210.425471"/>
     <use style="fill:#ffbf00;fill-opacity:0.5;stroke:#ffbf00;stroke-opacity:0.5;stroke-width:2.5;" x="316.495682" xlink:href="#mb1bebbeb86" y="224.517219"/>
     <use style="fill:#ffbf00;fill-opacity:0.5;stroke:#ffbf00;stroke-opacity:0.5;stroke-width:2.5;" x="75.401784" xlink:href="#mb1bebbeb86" y="204.830192"/>
     <use style="fill:#ffbf00;fill-opacity:0.5;stroke:#ffbf00;stroke-opacity:0.5;stroke-width:2.5;" x="204.274133" xlink:href="#mb1bebbeb86" y="212.547606"/>
     <use style="fill:#ffbf00;fill-opacity:0.5;stroke:#ffbf00;stroke-opacity:0.5;stroke-width:2.5;" x="315.373281" xlink:href="#mb1bebbeb86" y="225.506828"/>
     <use style="fill:#ffbf00;fill-opacity:0.5;stroke:#ffbf00;stroke-opacity:0.5;stroke-width:2.5;" x="79.008137" xlink:href="#mb1bebbeb86" y="204.813109"/>
     <use style="fill:#ffbf00;fill-opacity:0.5;stroke:#ffbf00;stroke-opacity:0.5;stroke-width:2.5;" x="202.526098" xlink:href="#mb1bebbeb86" y="211.805695"/>
     <use style="fill:#ffbf00;fill-opacity:0.5;stroke:#ffbf00;stroke-opacity:0.5;stroke-width:2.5;" x="315.141211" xlink:href="#mb1bebbeb86" y="225.065819"/>
    </g>
   </g>
   <g id="matplotlib.axis_1">
    <g id="xtick_1">
     <g id="line2d_1">
      <path clip-path="url(#p80b74dccdc)" d="M 68.834669 279 
L 68.834669 7.2 
" style="fill:none;stroke:#808080;stroke-linecap:square;stroke-opacity:0.2;stroke-width:2;"/>
     </g>
     <g id="line2d_2">
      <defs>
       <path d="M 0 0 
L 0 3.5 
" id="m4e7e2344c7" style="stroke:#000000;stroke-width:0.8;"/>
      </defs>
      <g>
       <use style="stroke:#000000;stroke-width:0.8;" x="68.834669" xlink:href="#m4e7e2344c7" y="279"/>
      </g>
     </g>
     <g id="text_1">
      <!-- −40 -->
      <g transform="translate(60.353419 293.157812)scale(0.1 -0.1)">
       <defs>
        <path d="M 52.828125 31.203125 
L 5.5625 31.203125 
L 5.5625 39.40625 
L 52.828125 39.40625 
z
" id="ArialMT-8722"/>
        <path d="M 32.328125 0 
L 32.328125 17.140625 
L 1.265625 17.140625 
L 1.265625 25.203125 
L 33.9375 71.578125 
L 41.109375 71.578125 
L 41.109375 25.203125 
L 50.78125 25.203125 
L 50.78125 17.140625 
L 41.109375 17.140625 
L 41.109375 0 
z
M 32.328125 25.203125 
L 32.328125 57.46875 
L 9.90625 25.203125 
z
" id="ArialMT-52"/>
        <path d="M 4.15625 35.296875 
Q 4.15625 48 6.765625 55.734375 
Q 9.375 63.484375 14.515625 67.671875 
Q 19.671875 71.875 27.484375 71.875 
Q 33.25 71.875 37.59375 69.546875 
Q 41.9375 67.234375 44.765625 62.859375 
Q 47.609375 58.5 49.21875 52.21875 
Q 50.828125 45.953125 50.828125 35.296875 
Q 50.828125 22.703125 48.234375 14.96875 
Q 45.65625 7.234375 40.5 3 
Q 35.359375 -1.21875 27.484375 -1.21875 
Q 17.140625 -1.21875 11.234375 6.203125 
Q 4.15625 15.140625 4.15625 35.296875 
z
M 13.1875 35.296875 
Q 13.1875 17.671875 17.3125 11.828125 
Q 21.4375 6 27.484375 6 
Q 33.546875 6 37.671875 11.859375 
Q 41.796875 17.71875 41.796875 35.296875 
Q 41.796875 52.984375 37.671875 58.78125 
Q 33.546875 64.59375 27.390625 64.59375 
Q 21.34375 64.59375 17.71875 59.46875 
Q 13.1875 52.9375 13.1875 35.296875 
z
" id="ArialMT-48"/>
       </defs>
       <use xlink:href="#ArialMT-8722"/>
       <use x="58.398438" xlink:href="#ArialMT-52"/>
       <use x="114.013672" xlink:href="#ArialMT-48"/>
      </g>
     </g>
    </g>
    <g id="xtick_2">
     <g id="line2d_3">
      <path clip-path="url(#p80b74dccdc)" d="M 127.576926 279 
L 127.576926 7.2 
" style="fill:none;stroke:#808080;stroke-linecap:square;stroke-opacity:0.2;stroke-width:2;"/>
     </g>
     <g id="line2d_4">
      <g>
       <use style="stroke:#000000;stroke-width:0.8;" x="127.576926" xlink:href="#m4e7e2344c7" y="279"/>
      </g>
     </g>
     <g id="text_2">
      <!-- −20 -->
      <g transform="translate(119.095676 293.157812)scale(0.1 -0.1)">
       <defs>
        <path d="M 50.34375 8.453125 
L 50.34375 0 
L 3.03125 0 
Q 2.9375 3.171875 4.046875 6.109375 
Q 5.859375 10.9375 9.828125 15.625 
Q 13.8125 20.3125 21.34375 26.46875 
Q 33.015625 36.03125 37.109375 41.625 
Q 41.21875 47.21875 41.21875 52.203125 
Q 41.21875 57.421875 37.46875 61 
Q 33.734375 64.59375 27.734375 64.59375 
Q 21.390625 64.59375 17.578125 60.78125 
Q 13.765625 56.984375 13.71875 50.25 
L 4.6875 51.171875 
Q 5.609375 61.28125 11.65625 66.578125 
Q 17.71875 71.875 27.9375 71.875 
Q 38.234375 71.875 44.234375 66.15625 
Q 50.25 60.453125 50.25 52 
Q 50.25 47.703125 48.484375 43.546875 
Q 46.734375 39.40625 42.65625 34.8125 
Q 38.578125 30.21875 29.109375 22.21875 
Q 21.1875 15.578125 18.9375 13.203125 
Q 16.703125 10.84375 15.234375 8.453125 
z
" id="ArialMT-50"/>
       </defs>
       <use xlink:href="#ArialMT-8722"/>
       <use x="58.398438" xlink:href="#ArialMT-50"/>
       <use x="114.013672" xlink:href="#ArialMT-48"/>
      </g>
     </g>
    </g>
    <g id="xtick_3">
     <g id="line2d_5">
      <path clip-path="url(#p80b74dccdc)" d="M 186.319183 279 
L 186.319183 7.2 
" style="fill:none;stroke:#808080;stroke-linecap:square;stroke-opacity:0.2;stroke-width:2;"/>
     </g>
     <g id="line2d_6">
      <g>
       <use style="stroke:#000000;stroke-width:0.8;" x="186.319183" xlink:href="#m4e7e2344c7" y="279"/>
      </g>
     </g>
     <g id="text_3">
      <!-- 0 -->
      <g transform="translate(183.538715 293.157812)scale(0.1 -0.1)">
       <use xlink:href="#ArialMT-48"/>
      </g>
     </g>
    </g>
    <g id="xtick_4">
     <g id="line2d_7">
      <path clip-path="url(#p80b74dccdc)" d="M 245.06144 279 
L 245.06144 7.2 
" style="fill:none;stroke:#808080;stroke-linecap:square;stroke-opacity:0.2;stroke-width:2;"/>
     </g>
     <g id="line2d_8">
      <g>
       <use style="stroke:#000000;stroke-width:0.8;" x="245.06144" xlink:href="#m4e7e2344c7" y="279"/>
      </g>
     </g>
     <g id="text_4">
      <!-- 20 -->
      <g transform="translate(239.500503 293.157812)scale(0.1 -0.1)">
       <use xlink:href="#ArialMT-50"/>
       <use x="55.615234" xlink:href="#ArialMT-48"/>
      </g>
     </g>
    </g>
    <g id="xtick_5">
     <g id="line2d_9">
      <path clip-path="url(#p80b74dccdc)" d="M 303.803697 279 
L 303.803697 7.2 
" style="fill:none;stroke:#808080;stroke-linecap:square;stroke-opacity:0.2;stroke-width:2;"/>
     </g>
     <g id="line2d_10">
      <g>
       <use style="stroke:#000000;stroke-width:0.8;" x="303.803697" xlink:href="#m4e7e2344c7" y="279"/>
      </g>
     </g>
     <g id="text_5">
      <!-- 40 -->
      <g transform="translate(298.24276 293.157812)scale(0.1 -0.1)">
       <use xlink:href="#ArialMT-52"/>
       <use x="55.615234" xlink:href="#ArialMT-48"/>
      </g>
     </g>
    </g>
    <g id="text_6">
     <!-- PC1 (40.8%) -->
     <g transform="translate(143.8825 310.792812)scale(0.16 -0.16)">
      <defs>
       <path d="M 7.71875 0 
L 7.71875 71.578125 
L 34.71875 71.578125 
Q 41.84375 71.578125 45.609375 70.90625 
Q 50.875 70.015625 54.4375 67.546875 
Q 58.015625 65.09375 60.1875 60.640625 
Q 62.359375 56.203125 62.359375 50.875 
Q 62.359375 41.75 56.546875 35.421875 
Q 50.734375 29.109375 35.546875 29.109375 
L 17.1875 29.109375 
L 17.1875 0 
z
M 17.1875 37.546875 
L 35.6875 37.546875 
Q 44.875 37.546875 48.734375 40.96875 
Q 52.59375 44.390625 52.59375 50.59375 
Q 52.59375 55.078125 50.3125 58.265625 
Q 48.046875 61.46875 44.34375 62.5 
Q 41.9375 63.140625 35.5 63.140625 
L 17.1875 63.140625 
z
" id="ArialMT-80"/>
       <path d="M 58.796875 25.09375 
L 68.265625 22.703125 
Q 65.28125 11.03125 57.546875 4.90625 
Q 49.8125 -1.21875 38.625 -1.21875 
Q 27.046875 -1.21875 19.796875 3.484375 
Q 12.546875 8.203125 8.765625 17.140625 
Q 4.984375 26.078125 4.984375 36.328125 
Q 4.984375 47.515625 9.25 55.828125 
Q 13.53125 64.15625 21.40625 68.46875 
Q 29.296875 72.796875 38.765625 72.796875 
Q 49.515625 72.796875 56.828125 67.328125 
Q 64.15625 61.859375 67.046875 51.953125 
L 57.71875 49.75 
Q 55.21875 57.5625 50.484375 61.125 
Q 45.75 64.703125 38.578125 64.703125 
Q 30.328125 64.703125 24.78125 60.734375 
Q 19.234375 56.78125 16.984375 50.109375 
Q 14.75 43.453125 14.75 36.375 
Q 14.75 27.25 17.40625 20.4375 
Q 20.0625 13.625 25.671875 10.25 
Q 31.296875 6.890625 37.84375 6.890625 
Q 45.796875 6.890625 51.3125 11.46875 
Q 56.84375 16.0625 58.796875 25.09375 
z
" id="ArialMT-67"/>
       <path d="M 37.25 0 
L 28.46875 0 
L 28.46875 56 
Q 25.296875 52.984375 20.140625 49.953125 
Q 14.984375 46.921875 10.890625 45.40625 
L 10.890625 53.90625 
Q 18.265625 57.375 23.78125 62.296875 
Q 29.296875 67.234375 31.59375 71.875 
L 37.25 71.875 
z
" id="ArialMT-49"/>
       <path id="ArialMT-32"/>
       <path d="M 23.390625 -21.046875 
Q 16.109375 -11.859375 11.078125 0.4375 
Q 6.0625 12.75 6.0625 25.921875 
Q 6.0625 37.546875 9.8125 48.1875 
Q 14.203125 60.546875 23.390625 72.796875 
L 29.6875 72.796875 
Q 23.78125 62.640625 21.875 58.296875 
Q 18.890625 51.5625 17.1875 44.234375 
Q 15.09375 35.109375 15.09375 25.875 
Q 15.09375 2.390625 29.6875 -21.046875 
z
" id="ArialMT-40"/>
       <path d="M 9.078125 0 
L 9.078125 10.015625 
L 19.09375 10.015625 
L 19.09375 0 
z
" id="ArialMT-46"/>
       <path d="M 17.671875 38.8125 
Q 12.203125 40.828125 9.5625 44.53125 
Q 6.9375 48.25 6.9375 53.421875 
Q 6.9375 61.234375 12.546875 66.546875 
Q 18.171875 71.875 27.484375 71.875 
Q 36.859375 71.875 42.578125 66.421875 
Q 48.296875 60.984375 48.296875 53.171875 
Q 48.296875 48.1875 45.671875 44.5 
Q 43.0625 40.828125 37.75 38.8125 
Q 44.34375 36.671875 47.78125 31.875 
Q 51.21875 27.09375 51.21875 20.453125 
Q 51.21875 11.28125 44.71875 5.03125 
Q 38.234375 -1.21875 27.640625 -1.21875 
Q 17.046875 -1.21875 10.546875 5.046875 
Q 4.046875 11.328125 4.046875 20.703125 
Q 4.046875 27.6875 7.59375 32.390625 
Q 11.140625 37.109375 17.671875 38.8125 
z
M 15.921875 53.71875 
Q 15.921875 48.640625 19.1875 45.40625 
Q 22.46875 42.1875 27.6875 42.1875 
Q 32.765625 42.1875 36.015625 45.375 
Q 39.265625 48.578125 39.265625 53.21875 
Q 39.265625 58.0625 35.90625 61.359375 
Q 32.5625 64.65625 27.59375 64.65625 
Q 22.5625 64.65625 19.234375 61.421875 
Q 15.921875 58.203125 15.921875 53.71875 
z
M 13.09375 20.65625 
Q 13.09375 16.890625 14.875 13.375 
Q 16.65625 9.859375 20.171875 7.921875 
Q 23.6875 6 27.734375 6 
Q 34.03125 6 38.125 10.046875 
Q 42.234375 14.109375 42.234375 20.359375 
Q 42.234375 26.703125 38.015625 30.859375 
Q 33.796875 35.015625 27.4375 35.015625 
Q 21.234375 35.015625 17.15625 30.90625 
Q 13.09375 26.8125 13.09375 20.65625 
z
" id="ArialMT-56"/>
       <path d="M 5.8125 54.390625 
Q 5.8125 62.0625 9.671875 67.421875 
Q 13.53125 72.796875 20.84375 72.796875 
Q 27.59375 72.796875 32 67.984375 
Q 36.421875 63.1875 36.421875 53.859375 
Q 36.421875 44.78125 31.953125 39.875 
Q 27.484375 34.96875 20.953125 34.96875 
Q 14.453125 34.96875 10.125 39.796875 
Q 5.8125 44.625 5.8125 54.390625 
z
M 21.09375 66.75 
Q 17.828125 66.75 15.65625 63.90625 
Q 13.484375 61.078125 13.484375 53.515625 
Q 13.484375 46.625 15.671875 43.8125 
Q 17.875 41.015625 21.09375 41.015625 
Q 24.421875 41.015625 26.59375 43.84375 
Q 28.765625 46.6875 28.765625 54.203125 
Q 28.765625 61.140625 26.5625 63.9375 
Q 24.359375 66.75 21.09375 66.75 
z
M 21.140625 -2.640625 
L 60.296875 72.796875 
L 67.4375 72.796875 
L 28.421875 -2.640625 
z
M 52.09375 16.796875 
Q 52.09375 24.515625 55.953125 29.859375 
Q 59.8125 35.203125 67.1875 35.203125 
Q 73.921875 35.203125 78.34375 30.390625 
Q 82.765625 25.59375 82.765625 16.265625 
Q 82.765625 7.171875 78.296875 2.265625 
Q 73.828125 -2.640625 67.234375 -2.640625 
Q 60.75 -2.640625 56.421875 2.21875 
Q 52.09375 7.078125 52.09375 16.796875 
z
M 67.4375 29.15625 
Q 64.109375 29.15625 61.9375 26.3125 
Q 59.765625 23.484375 59.765625 15.921875 
Q 59.765625 9.078125 61.953125 6.25 
Q 64.15625 3.421875 67.390625 3.421875 
Q 70.75 3.421875 72.921875 6.25 
Q 75.09375 9.078125 75.09375 16.609375 
Q 75.09375 23.53125 72.890625 26.34375 
Q 70.703125 29.15625 67.4375 29.15625 
z
" id="ArialMT-37"/>
       <path d="M 12.359375 -21.046875 
L 6.0625 -21.046875 
Q 20.65625 2.390625 20.65625 25.875 
Q 20.65625 35.0625 18.5625 44.09375 
Q 16.890625 51.421875 13.921875 58.15625 
Q 12.015625 62.546875 6.0625 72.796875 
L 12.359375 72.796875 
Q 21.53125 60.546875 25.921875 48.1875 
Q 29.6875 37.546875 29.6875 25.921875 
Q 29.6875 12.75 24.625 0.4375 
Q 19.578125 -11.859375 12.359375 -21.046875 
z
" id="ArialMT-41"/>
      </defs>
      <use xlink:href="#ArialMT-80"/>
      <use x="66.699219" xlink:href="#ArialMT-67"/>
      <use x="138.916016" xlink:href="#ArialMT-49"/>
      <use x="194.53125" xlink:href="#ArialMT-32"/>
      <use x="222.314453" xlink:href="#ArialMT-40"/>
      <use x="255.615234" xlink:href="#ArialMT-52"/>
      <use x="311.230469" xlink:href="#ArialMT-48"/>
      <use x="366.845703" xlink:href="#ArialMT-46"/>
      <use x="394.628906" xlink:href="#ArialMT-56"/>
      <use x="450.244141" xlink:href="#ArialMT-37"/>
      <use x="539.160156" xlink:href="#ArialMT-41"/>
     </g>
    </g>
   </g>
   <g id="matplotlib.axis_2">
    <g id="ytick_1">
     <g id="line2d_11">
      <path clip-path="url(#p80b74dccdc)" d="M 50.1775 267.636877 
L 329.1775 267.636877 
" style="fill:none;stroke:#808080;stroke-linecap:square;stroke-opacity:0.2;stroke-width:2;"/>
     </g>
     <g id="line2d_12">
      <defs>
       <path d="M 0 0 
L -3.5 0 
" id="md088b7213b" style="stroke:#000000;stroke-width:0.8;"/>
      </defs>
      <g>
       <use style="stroke:#000000;stroke-width:0.8;" x="50.1775" xlink:href="#md088b7213b" y="267.636877"/>
      </g>
     </g>
     <g id="text_7">
      <!-- −20 -->
      <g transform="translate(26.215 271.215784)scale(0.1 -0.1)">
       <use xlink:href="#ArialMT-8722"/>
       <use x="58.398438" xlink:href="#ArialMT-50"/>
       <use x="114.013672" xlink:href="#ArialMT-48"/>
      </g>
     </g>
    </g>
    <g id="ytick_2">
     <g id="line2d_13">
      <path clip-path="url(#p80b74dccdc)" d="M 50.1775 224.091083 
L 329.1775 224.091083 
" style="fill:none;stroke:#808080;stroke-linecap:square;stroke-opacity:0.2;stroke-width:2;"/>
     </g>
     <g id="line2d_14">
      <g>
       <use style="stroke:#000000;stroke-width:0.8;" x="50.1775" xlink:href="#md088b7213b" y="224.091083"/>
      </g>
     </g>
     <g id="text_8">
      <!-- −10 -->
      <g transform="translate(26.215 227.669989)scale(0.1 -0.1)">
       <use xlink:href="#ArialMT-8722"/>
       <use x="58.398438" xlink:href="#ArialMT-49"/>
       <use x="114.013672" xlink:href="#ArialMT-48"/>
      </g>
     </g>
    </g>
    <g id="ytick_3">
     <g id="line2d_15">
      <path clip-path="url(#p80b74dccdc)" d="M 50.1775 180.545289 
L 329.1775 180.545289 
" style="fill:none;stroke:#808080;stroke-linecap:square;stroke-opacity:0.2;stroke-width:2;"/>
     </g>
     <g id="line2d_16">
      <g>
       <use style="stroke:#000000;stroke-width:0.8;" x="50.1775" xlink:href="#md088b7213b" y="180.545289"/>
      </g>
     </g>
     <g id="text_9">
      <!-- 0 -->
      <g transform="translate(37.616563 184.124195)scale(0.1 -0.1)">
       <use xlink:href="#ArialMT-48"/>
      </g>
     </g>
    </g>
    <g id="ytick_4">
     <g id="line2d_17">
      <path clip-path="url(#p80b74dccdc)" d="M 50.1775 136.999494 
L 329.1775 136.999494 
" style="fill:none;stroke:#808080;stroke-linecap:square;stroke-opacity:0.2;stroke-width:2;"/>
     </g>
     <g id="line2d_18">
      <g>
       <use style="stroke:#000000;stroke-width:0.8;" x="50.1775" xlink:href="#md088b7213b" y="136.999494"/>
      </g>
     </g>
     <g id="text_10">
      <!-- 10 -->
      <g transform="translate(32.055625 140.5784)scale(0.1 -0.1)">
       <use xlink:href="#ArialMT-49"/>
       <use x="55.615234" xlink:href="#ArialMT-48"/>
      </g>
     </g>
    </g>
    <g id="ytick_5">
     <g id="line2d_19">
      <path clip-path="url(#p80b74dccdc)" d="M 50.1775 93.4537 
L 329.1775 93.4537 
" style="fill:none;stroke:#808080;stroke-linecap:square;stroke-opacity:0.2;stroke-width:2;"/>
     </g>
     <g id="line2d_20">
      <g>
       <use style="stroke:#000000;stroke-width:0.8;" x="50.1775" xlink:href="#md088b7213b" y="93.4537"/>
      </g>
     </g>
     <g id="text_11">
      <!-- 20 -->
      <g transform="translate(32.055625 97.032606)scale(0.1 -0.1)">
       <use xlink:href="#ArialMT-50"/>
       <use x="55.615234" xlink:href="#ArialMT-48"/>
      </g>
     </g>
    </g>
    <g id="ytick_6">
     <g id="line2d_21">
      <path clip-path="url(#p80b74dccdc)" d="M 50.1775 49.907905 
L 329.1775 49.907905 
" style="fill:none;stroke:#808080;stroke-linecap:square;stroke-opacity:0.2;stroke-width:2;"/>
     </g>
     <g id="line2d_22">
      <g>
       <use style="stroke:#000000;stroke-width:0.8;" x="50.1775" xlink:href="#md088b7213b" y="49.907905"/>
      </g>
     </g>
     <g id="text_12">
      <!-- 30 -->
      <g transform="translate(32.055625 53.486811)scale(0.1 -0.1)">
       <defs>
        <path d="M 4.203125 18.890625 
L 12.984375 20.0625 
Q 14.5 12.59375 18.140625 9.296875 
Q 21.78125 6 27 6 
Q 33.203125 6 37.46875 10.296875 
Q 41.75 14.59375 41.75 20.953125 
Q 41.75 27 37.796875 30.921875 
Q 33.84375 34.859375 27.734375 34.859375 
Q 25.25 34.859375 21.53125 33.890625 
L 22.515625 41.609375 
Q 23.390625 41.5 23.921875 41.5 
Q 29.546875 41.5 34.03125 44.421875 
Q 38.53125 47.359375 38.53125 53.46875 
Q 38.53125 58.296875 35.25 61.46875 
Q 31.984375 64.65625 26.8125 64.65625 
Q 21.6875 64.65625 18.265625 61.421875 
Q 14.84375 58.203125 13.875 51.765625 
L 5.078125 53.328125 
Q 6.6875 62.15625 12.390625 67.015625 
Q 18.109375 71.875 26.609375 71.875 
Q 32.46875 71.875 37.390625 69.359375 
Q 42.328125 66.84375 44.9375 62.5 
Q 47.5625 58.15625 47.5625 53.265625 
Q 47.5625 48.640625 45.0625 44.828125 
Q 42.578125 41.015625 37.703125 38.765625 
Q 44.046875 37.3125 47.5625 32.6875 
Q 51.078125 28.078125 51.078125 21.140625 
Q 51.078125 11.765625 44.234375 5.25 
Q 37.40625 -1.265625 26.953125 -1.265625 
Q 17.53125 -1.265625 11.296875 4.34375 
Q 5.078125 9.96875 4.203125 18.890625 
z
" id="ArialMT-51"/>
       </defs>
       <use xlink:href="#ArialMT-51"/>
       <use x="55.615234" xlink:href="#ArialMT-48"/>
      </g>
     </g>
    </g>
    <g id="text_13">
     <!-- PC2 (16.2%) -->
     <g transform="translate(18.8475 188.895)rotate(-90)scale(0.16 -0.16)">
      <defs>
       <path d="M 49.75 54.046875 
L 41.015625 53.375 
Q 39.84375 58.546875 37.703125 60.890625 
Q 34.125 64.65625 28.90625 64.65625 
Q 24.703125 64.65625 21.53125 62.3125 
Q 17.390625 59.28125 14.984375 53.46875 
Q 12.59375 47.65625 12.5 36.921875 
Q 15.671875 41.75 20.265625 44.09375 
Q 24.859375 46.4375 29.890625 46.4375 
Q 38.671875 46.4375 44.84375 39.96875 
Q 51.03125 33.5 51.03125 23.25 
Q 51.03125 16.5 48.125 10.71875 
Q 45.21875 4.9375 40.140625 1.859375 
Q 35.0625 -1.21875 28.609375 -1.21875 
Q 17.625 -1.21875 10.6875 6.859375 
Q 3.765625 14.9375 3.765625 33.5 
Q 3.765625 54.25 11.421875 63.671875 
Q 18.109375 71.875 29.4375 71.875 
Q 37.890625 71.875 43.28125 67.140625 
Q 48.6875 62.40625 49.75 54.046875 
z
M 13.875 23.1875 
Q 13.875 18.65625 15.796875 14.5 
Q 17.71875 10.359375 21.1875 8.171875 
Q 24.65625 6 28.46875 6 
Q 34.03125 6 38.03125 10.484375 
Q 42.046875 14.984375 42.046875 22.703125 
Q 42.046875 30.125 38.078125 34.390625 
Q 34.125 38.671875 28.125 38.671875 
Q 22.171875 38.671875 18.015625 34.390625 
Q 13.875 30.125 13.875 23.1875 
z
" id="ArialMT-54"/>
      </defs>
      <use xlink:href="#ArialMT-80"/>
      <use x="66.699219" xlink:href="#ArialMT-67"/>
      <use x="138.916016" xlink:href="#ArialMT-50"/>
      <use x="194.53125" xlink:href="#ArialMT-32"/>
      <use x="222.314453" xlink:href="#ArialMT-40"/>
      <use x="255.615234" xlink:href="#ArialMT-49"/>
      <use x="311.230469" xlink:href="#ArialMT-54"/>
      <use x="366.845703" xlink:href="#ArialMT-46"/>
      <use x="394.628906" xlink:href="#ArialMT-50"/>
      <use x="450.244141" xlink:href="#ArialMT-37"/>
      <use x="539.160156" xlink:href="#ArialMT-41"/>
     </g>
    </g>
   </g>
   <g id="patch_3">
    <path d="M 50.1775 279 
L 50.1775 7.2 
" style="fill:none;stroke:#000000;stroke-linecap:square;stroke-linejoin:miter;stroke-width:0.8;"/>
   </g>
   <g id="patch_4">
    <path d="M 329.1775 279 
L 329.1775 7.2 
" style="fill:none;stroke:#000000;stroke-linecap:square;stroke-linejoin:miter;stroke-width:0.8;"/>
   </g>
   <g id="patch_5">
    <path d="M 50.1775 279 
L 329.1775 279 
" style="fill:none;stroke:#000000;stroke-linecap:square;stroke-linejoin:miter;stroke-width:0.8;"/>
   </g>
   <g id="patch_6">
    <path d="M 50.1775 7.2 
L 329.1775 7.2 
" style="fill:none;stroke:#000000;stroke-linecap:square;stroke-linejoin:miter;stroke-width:0.8;"/>
   </g>
   <g id="text_14">
    <!-- d3 -->
    <g style="fill:#0088ff;" transform="translate(70.212783 196.369495)scale(0.16 -0.16)">
     <defs>
      <path d="M 40.234375 0 
L 40.234375 6.546875 
Q 35.296875 -1.171875 25.734375 -1.171875 
Q 19.53125 -1.171875 14.328125 2.25 
Q 9.125 5.671875 6.265625 11.796875 
Q 3.421875 17.921875 3.421875 25.875 
Q 3.421875 33.640625 6 39.96875 
Q 8.59375 46.296875 13.765625 49.65625 
Q 18.953125 53.03125 25.34375 53.03125 
Q 30.03125 53.03125 33.6875 51.046875 
Q 37.359375 49.078125 39.65625 45.90625 
L 39.65625 71.578125 
L 48.390625 71.578125 
L 48.390625 0 
z
M 12.453125 25.875 
Q 12.453125 15.921875 16.640625 10.984375 
Q 20.84375 6.0625 26.5625 6.0625 
Q 32.328125 6.0625 36.34375 10.765625 
Q 40.375 15.484375 40.375 25.140625 
Q 40.375 35.796875 36.265625 40.765625 
Q 32.171875 45.75 26.171875 45.75 
Q 20.3125 45.75 16.375 40.96875 
Q 12.453125 36.1875 12.453125 25.875 
z
" id="ArialMT-100"/>
     </defs>
     <use xlink:href="#ArialMT-100"/>
     <use x="55.615234" xlink:href="#ArialMT-51"/>
    </g>
   </g>
   <g id="text_15">
    <!-- d7 -->
    <g style="fill:#0088ff;" transform="translate(205.024598 196.020783)scale(0.16 -0.16)">
     <defs>
      <path d="M 4.734375 62.203125 
L 4.734375 70.65625 
L 51.078125 70.65625 
L 51.078125 63.8125 
Q 44.234375 56.546875 37.515625 44.484375 
Q 30.8125 32.421875 27.15625 19.671875 
Q 24.515625 10.6875 23.78125 0 
L 14.75 0 
Q 14.890625 8.453125 18.0625 20.40625 
Q 21.234375 32.375 27.171875 43.484375 
Q 33.109375 54.59375 39.796875 62.203125 
z
" id="ArialMT-55"/>
     </defs>
     <use xlink:href="#ArialMT-100"/>
     <use x="55.615234" xlink:href="#ArialMT-55"/>
    </g>
   </g>
   <g id="text_16">
    <!-- d14 -->
    <g style="fill:#0088ff;" transform="translate(297.001275 200.847061)scale(0.16 -0.16)">
     <use xlink:href="#ArialMT-100"/>
     <use x="55.615234" xlink:href="#ArialMT-49"/>
     <use x="111.230469" xlink:href="#ArialMT-52"/>
    </g>
   </g>
   <g id="text_17">
    <!-- d3 -->
    <g style="fill:#ff6f00;" transform="translate(85.364349 80.551876)scale(0.16 -0.16)">
     <use xlink:href="#ArialMT-100"/>
     <use x="55.615234" xlink:href="#ArialMT-51"/>
    </g>
   </g>
   <g id="text_18">
    <!-- d7 -->
    <g style="fill:#ff6f00;" transform="translate(191.148355 43.504732)scale(0.16 -0.16)">
     <use xlink:href="#ArialMT-100"/>
     <use x="55.615234" xlink:href="#ArialMT-55"/>
    </g>
   </g>
   <g id="text_19">
    <!-- d14 -->
    <g style="fill:#ff6f00;" transform="translate(279.737933 80.380157)scale(0.16 -0.16)">
     <use xlink:href="#ArialMT-100"/>
     <use x="55.615234" xlink:href="#ArialMT-49"/>
     <use x="111.230469" xlink:href="#ArialMT-52"/>
    </g>
   </g>
   <g id="text_20">
    <!-- d3 -->
    <g style="fill:#00e883;" transform="translate(70.846061 240.86913)scale(0.16 -0.16)">
     <use xlink:href="#ArialMT-100"/>
     <use x="55.615234" xlink:href="#ArialMT-51"/>
    </g>
   </g>
   <g id="text_21">
    <!-- d7 -->
    <g style="fill:#00e883;" transform="translate(167.367539 254.786308)scale(0.16 -0.16)">
     <use xlink:href="#ArialMT-100"/>
     <use x="55.615234" xlink:href="#ArialMT-55"/>
    </g>
   </g>
   <g id="text_22">
    <!-- d14 -->
    <g style="fill:#00e883;" transform="translate(246.203524 257.936296)scale(0.16 -0.16)">
     <use xlink:href="#ArialMT-100"/>
     <use x="55.615234" xlink:href="#ArialMT-49"/>
     <use x="111.230469" xlink:href="#ArialMT-52"/>
    </g>
   </g>
   <g id="text_23">
    <!-- d3 -->
    <g style="fill:#ffbf00;" transform="translate(84.300014 202.6531)scale(0.16 -0.16)">
     <use xlink:href="#ArialMT-100"/>
     <use x="55.615234" xlink:href="#ArialMT-51"/>
    </g>
   </g>
   <g id="text_24">
    <!-- d7 -->
    <g style="fill:#ffbf00;" transform="translate(209.944284 210.425471)scale(0.16 -0.16)">
     <use xlink:href="#ArialMT-100"/>
     <use x="55.615234" xlink:href="#ArialMT-55"/>
    </g>
   </g>
   <g id="text_25">
    <!-- d14 -->
    <g style="fill:#ffbf00;" transform="translate(301.810118 246.290116)scale(0.16 -0.16)">
     <use xlink:href="#ArialMT-100"/>
     <use x="55.615234" xlink:href="#ArialMT-49"/>
     <use x="111.230469" xlink:href="#ArialMT-52"/>
    </g>
   </g>
   <g id="legend_1">
    <g id="patch_7">
     <path d="M 341.0675 91.155625 
L 416.625938 91.155625 
Q 419.225938 91.155625 419.225938 88.555625 
L 419.225938 16.3 
Q 419.225938 13.7 416.625938 13.7 
L 341.0675 13.7 
Q 338.4675 13.7 338.4675 16.3 
L 338.4675 88.555625 
Q 338.4675 91.155625 341.0675 91.155625 
z
" style="fill:#ffffff;opacity:0.8;stroke:#cccccc;stroke-linejoin:miter;"/>
    </g>
    <g id="PathCollection_5">
     <g>
      <use style="fill:#0088ff;fill-opacity:0.5;stroke:#0088ff;stroke-opacity:0.5;stroke-width:2.5;" x="356.6675" xlink:href="#m3b0735d05e" y="24.792656"/>
     </g>
    </g>
    <g id="text_26">
     <!-- Anp -->
     <g transform="translate(380.0675 28.205156)scale(0.13 -0.13)">
      <defs>
       <path d="M -0.140625 0 
L 27.34375 71.578125 
L 37.546875 71.578125 
L 66.84375 0 
L 56.0625 0 
L 47.703125 21.6875 
L 17.78125 21.6875 
L 9.90625 0 
z
M 20.515625 29.390625 
L 44.78125 29.390625 
L 37.3125 49.21875 
Q 33.890625 58.25 32.234375 64.0625 
Q 30.859375 57.171875 28.375 50.390625 
z
" id="ArialMT-65"/>
       <path d="M 6.59375 0 
L 6.59375 51.859375 
L 14.5 51.859375 
L 14.5 44.484375 
Q 20.21875 53.03125 31 53.03125 
Q 35.6875 53.03125 39.625 51.34375 
Q 43.5625 49.65625 45.515625 46.921875 
Q 47.46875 44.1875 48.25 40.4375 
Q 48.734375 37.984375 48.734375 31.890625 
L 48.734375 0 
L 39.9375 0 
L 39.9375 31.546875 
Q 39.9375 36.921875 38.90625 39.578125 
Q 37.890625 42.234375 35.28125 43.8125 
Q 32.671875 45.40625 29.15625 45.40625 
Q 23.53125 45.40625 19.453125 41.84375 
Q 15.375 38.28125 15.375 28.328125 
L 15.375 0 
z
" id="ArialMT-110"/>
       <path d="M 6.59375 -19.875 
L 6.59375 51.859375 
L 14.59375 51.859375 
L 14.59375 45.125 
Q 17.4375 49.078125 21 51.046875 
Q 24.5625 53.03125 29.640625 53.03125 
Q 36.28125 53.03125 41.359375 49.609375 
Q 46.4375 46.1875 49.015625 39.953125 
Q 51.609375 33.734375 51.609375 26.3125 
Q 51.609375 18.359375 48.75 11.984375 
Q 45.90625 5.609375 40.453125 2.21875 
Q 35.015625 -1.171875 29 -1.171875 
Q 24.609375 -1.171875 21.109375 0.6875 
Q 17.625 2.546875 15.375 5.375 
L 15.375 -19.875 
z
M 14.546875 25.640625 
Q 14.546875 15.625 18.59375 10.84375 
Q 22.65625 6.0625 28.421875 6.0625 
Q 34.28125 6.0625 38.453125 11.015625 
Q 42.625 15.96875 42.625 26.375 
Q 42.625 36.28125 38.546875 41.203125 
Q 34.46875 46.140625 28.8125 46.140625 
Q 23.1875 46.140625 18.859375 40.890625 
Q 14.546875 35.640625 14.546875 25.640625 
z
" id="ArialMT-112"/>
      </defs>
      <use xlink:href="#ArialMT-65"/>
      <use x="66.699219" xlink:href="#ArialMT-110"/>
      <use x="122.314453" xlink:href="#ArialMT-112"/>
     </g>
    </g>
    <g id="PathCollection_6">
     <g>
      <use style="fill:#ff6f00;fill-opacity:0.5;stroke:#ff6f00;stroke-opacity:0.5;stroke-width:2.5;" x="356.6675" xlink:href="#mc42843d720" y="43.181562"/>
     </g>
    </g>
    <g id="text_27">
     <!-- AMn -->
     <g transform="translate(380.0675 46.594062)scale(0.13 -0.13)">
      <defs>
       <path d="M 7.421875 0 
L 7.421875 71.578125 
L 21.6875 71.578125 
L 38.625 20.90625 
Q 40.96875 13.8125 42.046875 10.296875 
Q 43.265625 14.203125 45.84375 21.78125 
L 62.984375 71.578125 
L 75.734375 71.578125 
L 75.734375 0 
L 66.609375 0 
L 66.609375 59.90625 
L 45.796875 0 
L 37.25 0 
L 16.546875 60.9375 
L 16.546875 0 
z
" id="ArialMT-77"/>
      </defs>
      <use xlink:href="#ArialMT-65"/>
      <use x="66.699219" xlink:href="#ArialMT-77"/>
      <use x="150" xlink:href="#ArialMT-110"/>
     </g>
    </g>
    <g id="PathCollection_7">
     <g>
      <use style="fill:#00e883;fill-opacity:0.5;stroke:#00e883;stroke-opacity:0.5;stroke-width:2.5;" x="356.6675" xlink:href="#md19618865d" y="61.570469"/>
     </g>
    </g>
    <g id="text_28">
     <!-- AMp -->
     <g transform="translate(380.0675 64.982969)scale(0.13 -0.13)">
      <use xlink:href="#ArialMT-65"/>
      <use x="66.699219" xlink:href="#ArialMT-77"/>
      <use x="150" xlink:href="#ArialMT-112"/>
     </g>
    </g>
    <g id="PathCollection_8">
     <g>
      <use style="fill:#ffbf00;fill-opacity:0.5;stroke:#ffbf00;stroke-opacity:0.5;stroke-width:2.5;" x="356.6675" xlink:href="#mb1bebbeb86" y="79.959375"/>
     </g>
    </g>
    <g id="text_29">
     <!-- AMnp -->
     <g transform="translate(380.0675 83.371875)scale(0.13 -0.13)">
      <use xlink:href="#ArialMT-65"/>
      <use x="66.699219" xlink:href="#ArialMT-77"/>
      <use x="150" xlink:href="#ArialMT-110"/>
      <use x="205.615234" xlink:href="#ArialMT-112"/>
     </g>
    </g>
   </g>
  </g>
 </g>
 <defs>
  <clipPath id="p80b74dccdc">
   <rect height="271.8" width="279" x="50.1775" y="7.2"/>
  </clipPath>
 </defs>
</svg>
