<?xml version="1.0" encoding="utf-8" standalone="no"?>
<!DOCTYPE svg PUBLIC "-//W3C//DTD SVG 1.1//EN"
  "http://www.w3.org/Graphics/SVG/1.1/DTD/svg11.dtd">
<!-- Created with matplotlib (https://matplotlib.org/) -->
<svg height="257.857476pt" version="1.1" viewBox="0 0 345.766094 257.857476" width="345.766094pt" xmlns="http://www.w3.org/2000/svg" xmlns:xlink="http://www.w3.org/1999/xlink">
 <metadata>
  <rdf:RDF xmlns:cc="http://creativecommons.org/ns#" xmlns:dc="http://purl.org/dc/elements/1.1/" xmlns:rdf="http://www.w3.org/1999/02/22-rdf-syntax-ns#">
   <cc:Work>
    <dc:type rdf:resource="http://purl.org/dc/dcmitype/StillImage"/>
    <dc:date>2023-02-07T16:54:31.396191</dc:date>
    <dc:format>image/svg+xml</dc:format>
    <dc:creator>
     <cc:Agent>
      <dc:title>Matplotlib v3.3.3, https://matplotlib.org/</dc:title>
     </cc:Agent>
    </dc:creator>
   </cc:Work>
  </rdf:RDF>
 </metadata>
 <defs>
  <style type="text/css">*{stroke-linecap:butt;stroke-linejoin:round;}</style>
 </defs>
 <g id="figure_1">
  <g id="patch_1">
   <path d="M -0 257.857476 
L 345.766094 257.857476 
L 345.766094 0 
L -0 0 
z
" style="fill:none;"/>
  </g>
  <g id="axes_1">
   <g id="patch_2">
    <path d="M 262.396094 211.689507 
L 334.936094 211.689507 
L 334.936094 23.936719 
L 262.396094 23.936719 
z
" style="fill:#ffffff;"/>
   </g>
   <g id="patch_3">
    <path clip-path="url(#p787c728d61)" d="M 262.396094 203.15529 
L 310.722313 203.15529 
L 310.722313 189.221873 
L 262.396094 189.221873 
z
" style="fill:#edab00;opacity:0.2;stroke:#edab00;stroke-linejoin:miter;stroke-width:2;"/>
   </g>
   <g id="patch_4">
    <path clip-path="url(#p787c728d61)" d="M 262.396094 185.738519 
L 314.755881 185.738519 
L 314.755881 171.805102 
L 262.396094 171.805102 
z
" style="fill:#edab00;opacity:0.2;stroke:#edab00;stroke-linejoin:miter;stroke-width:2;"/>
   </g>
   <g id="patch_5">
    <path clip-path="url(#p787c728d61)" d="M 262.396094 168.321748 
L 316.552951 168.321748 
L 316.552951 154.388332 
L 262.396094 154.388332 
z
" style="fill:#edab00;opacity:0.2;stroke:#edab00;stroke-linejoin:miter;stroke-width:2;"/>
   </g>
   <g id="patch_6">
    <path clip-path="url(#p787c728d61)" d="M 262.396094 150.904977 
L 318.721412 150.904977 
L 318.721412 136.971561 
L 262.396094 136.971561 
z
" style="fill:#edab00;opacity:0.2;stroke:#edab00;stroke-linejoin:miter;stroke-width:2;"/>
   </g>
   <g id="patch_7">
    <path clip-path="url(#p787c728d61)" d="M 262.396094 133.488207 
L 318.721412 133.488207 
L 318.721412 119.55479 
L 262.396094 119.55479 
z
" style="fill:#edab00;opacity:0.2;stroke:#edab00;stroke-linejoin:miter;stroke-width:2;"/>
   </g>
   <g id="patch_8">
    <path clip-path="url(#p787c728d61)" d="M 262.396094 116.071436 
L 319.369689 116.071436 
L 319.369689 102.138019 
L 262.396094 102.138019 
z
" style="fill:#edab00;opacity:0.2;stroke:#edab00;stroke-linejoin:miter;stroke-width:2;"/>
   </g>
   <g id="patch_9">
    <path clip-path="url(#p787c728d61)" d="M 262.396094 98.654665 
L 323.738861 98.654665 
L 323.738861 84.721249 
L 262.396094 84.721249 
z
" style="fill:#edab00;opacity:0.2;stroke:#edab00;stroke-linejoin:miter;stroke-width:2;"/>
   </g>
   <g id="patch_10">
    <path clip-path="url(#p787c728d61)" d="M 262.396094 81.237894 
L 331.34115 81.237894 
L 331.34115 67.304478 
L 262.396094 67.304478 
z
" style="fill:#edab00;opacity:0.2;stroke:#edab00;stroke-linejoin:miter;stroke-width:2;"/>
   </g>
   <g id="patch_11">
    <path clip-path="url(#p787c728d61)" d="M 262.396094 63.821124 
L 331.481808 63.821124 
L 331.481808 49.887707 
L 262.396094 49.887707 
z
" style="fill:#edab00;opacity:0.2;stroke:#edab00;stroke-linejoin:miter;stroke-width:2;"/>
   </g>
   <g id="patch_12">
    <path clip-path="url(#p787c728d61)" d="M 262.396094 46.404353 
L 331.481808 46.404353 
L 331.481808 32.470936 
L 262.396094 32.470936 
z
" style="fill:#edab00;opacity:0.2;stroke:#edab00;stroke-linejoin:miter;stroke-width:2;"/>
   </g>
   <g id="patch_13">
    <path clip-path="url(#p787c728d61)" d="M 262.396094 203.15529 
L 310.722313 203.15529 
L 310.722313 189.221873 
L 262.396094 189.221873 
z
" style="fill:none;opacity:0.7;stroke:#edab00;stroke-linejoin:miter;stroke-width:2;"/>
   </g>
   <g id="patch_14">
    <path clip-path="url(#p787c728d61)" d="M 262.396094 185.738519 
L 314.755881 185.738519 
L 314.755881 171.805102 
L 262.396094 171.805102 
z
" style="fill:none;opacity:0.7;stroke:#edab00;stroke-linejoin:miter;stroke-width:2;"/>
   </g>
   <g id="patch_15">
    <path clip-path="url(#p787c728d61)" d="M 262.396094 168.321748 
L 316.552951 168.321748 
L 316.552951 154.388332 
L 262.396094 154.388332 
z
" style="fill:none;opacity:0.7;stroke:#edab00;stroke-linejoin:miter;stroke-width:2;"/>
   </g>
   <g id="patch_16">
    <path clip-path="url(#p787c728d61)" d="M 262.396094 150.904977 
L 318.721412 150.904977 
L 318.721412 136.971561 
L 262.396094 136.971561 
z
" style="fill:none;opacity:0.7;stroke:#edab00;stroke-linejoin:miter;stroke-width:2;"/>
   </g>
   <g id="patch_17">
    <path clip-path="url(#p787c728d61)" d="M 262.396094 133.488207 
L 318.721412 133.488207 
L 318.721412 119.55479 
L 262.396094 119.55479 
z
" style="fill:none;opacity:0.7;stroke:#edab00;stroke-linejoin:miter;stroke-width:2;"/>
   </g>
   <g id="patch_18">
    <path clip-path="url(#p787c728d61)" d="M 262.396094 116.071436 
L 319.369689 116.071436 
L 319.369689 102.138019 
L 262.396094 102.138019 
z
" style="fill:none;opacity:0.7;stroke:#edab00;stroke-linejoin:miter;stroke-width:2;"/>
   </g>
   <g id="patch_19">
    <path clip-path="url(#p787c728d61)" d="M 262.396094 98.654665 
L 323.738861 98.654665 
L 323.738861 84.721249 
L 262.396094 84.721249 
z
" style="fill:none;opacity:0.7;stroke:#edab00;stroke-linejoin:miter;stroke-width:2;"/>
   </g>
   <g id="patch_20">
    <path clip-path="url(#p787c728d61)" d="M 262.396094 81.237894 
L 331.34115 81.237894 
L 331.34115 67.304478 
L 262.396094 67.304478 
z
" style="fill:none;opacity:0.7;stroke:#edab00;stroke-linejoin:miter;stroke-width:2;"/>
   </g>
   <g id="patch_21">
    <path clip-path="url(#p787c728d61)" d="M 262.396094 63.821124 
L 331.481808 63.821124 
L 331.481808 49.887707 
L 262.396094 49.887707 
z
" style="fill:none;opacity:0.7;stroke:#edab00;stroke-linejoin:miter;stroke-width:2;"/>
   </g>
   <g id="patch_22">
    <path clip-path="url(#p787c728d61)" d="M 262.396094 46.404353 
L 331.481808 46.404353 
L 331.481808 32.470936 
L 262.396094 32.470936 
z
" style="fill:none;opacity:0.7;stroke:#edab00;stroke-linejoin:miter;stroke-width:2;"/>
   </g>
   <g id="matplotlib.axis_1">
    <g id="xtick_1">
     <g id="line2d_1">
      <defs>
       <path d="M 0 0 
L 0 3.5 
" id="m29bf15c3be" style="stroke:#000000;stroke-width:0.8;"/>
      </defs>
      <g>
       <use style="stroke:#000000;stroke-width:0.8;" x="262.396094" xlink:href="#m29bf15c3be" y="211.689507"/>
      </g>
     </g>
     <g id="text_1">
      <!-- 0.0 -->
      <g transform="translate(251.971094 229.426226)scale(0.15 -0.15)">
       <defs>
        <path d="M 4.15625 35.296875 
Q 4.15625 48 6.765625 55.734375 
Q 9.375 63.484375 14.515625 67.671875 
Q 19.671875 71.875 27.484375 71.875 
Q 33.25 71.875 37.59375 69.546875 
Q 41.9375 67.234375 44.765625 62.859375 
Q 47.609375 58.5 49.21875 52.21875 
Q 50.828125 45.953125 50.828125 35.296875 
Q 50.828125 22.703125 48.234375 14.96875 
Q 45.65625 7.234375 40.5 3 
Q 35.359375 -1.21875 27.484375 -1.21875 
Q 17.140625 -1.21875 11.234375 6.203125 
Q 4.15625 15.140625 4.15625 35.296875 
z
M 13.1875 35.296875 
Q 13.1875 17.671875 17.3125 11.828125 
Q 21.4375 6 27.484375 6 
Q 33.546875 6 37.671875 11.859375 
Q 41.796875 17.71875 41.796875 35.296875 
Q 41.796875 52.984375 37.671875 58.78125 
Q 33.546875 64.59375 27.390625 64.59375 
Q 21.34375 64.59375 17.71875 59.46875 
Q 13.1875 52.9375 13.1875 35.296875 
z
" id="ArialMT-48"/>
        <path d="M 9.078125 0 
L 9.078125 10.015625 
L 19.09375 10.015625 
L 19.09375 0 
z
" id="ArialMT-46"/>
       </defs>
       <use xlink:href="#ArialMT-48"/>
       <use x="55.615234" xlink:href="#ArialMT-46"/>
       <use x="83.398438" xlink:href="#ArialMT-48"/>
      </g>
     </g>
    </g>
    <g id="xtick_2">
     <g id="line2d_2">
      <g>
       <use style="stroke:#000000;stroke-width:0.8;" x="307.487117" xlink:href="#m29bf15c3be" y="211.689507"/>
      </g>
     </g>
     <g id="text_2">
      <!-- 2.5 -->
      <g transform="translate(297.062117 229.426226)scale(0.15 -0.15)">
       <defs>
        <path d="M 50.34375 8.453125 
L 50.34375 0 
L 3.03125 0 
Q 2.9375 3.171875 4.046875 6.109375 
Q 5.859375 10.9375 9.828125 15.625 
Q 13.8125 20.3125 21.34375 26.46875 
Q 33.015625 36.03125 37.109375 41.625 
Q 41.21875 47.21875 41.21875 52.203125 
Q 41.21875 57.421875 37.46875 61 
Q 33.734375 64.59375 27.734375 64.59375 
Q 21.390625 64.59375 17.578125 60.78125 
Q 13.765625 56.984375 13.71875 50.25 
L 4.6875 51.171875 
Q 5.609375 61.28125 11.65625 66.578125 
Q 17.71875 71.875 27.9375 71.875 
Q 38.234375 71.875 44.234375 66.15625 
Q 50.25 60.453125 50.25 52 
Q 50.25 47.703125 48.484375 43.546875 
Q 46.734375 39.40625 42.65625 34.8125 
Q 38.578125 30.21875 29.109375 22.21875 
Q 21.1875 15.578125 18.9375 13.203125 
Q 16.703125 10.84375 15.234375 8.453125 
z
" id="ArialMT-50"/>
        <path d="M 4.15625 18.75 
L 13.375 19.53125 
Q 14.40625 12.796875 18.140625 9.390625 
Q 21.875 6 27.15625 6 
Q 33.5 6 37.890625 10.78125 
Q 42.28125 15.578125 42.28125 23.484375 
Q 42.28125 31 38.0625 35.34375 
Q 33.84375 39.703125 27 39.703125 
Q 22.75 39.703125 19.328125 37.765625 
Q 15.921875 35.84375 13.96875 32.765625 
L 5.71875 33.84375 
L 12.640625 70.609375 
L 48.25 70.609375 
L 48.25 62.203125 
L 19.671875 62.203125 
L 15.828125 42.96875 
Q 22.265625 47.46875 29.34375 47.46875 
Q 38.71875 47.46875 45.15625 40.96875 
Q 51.609375 34.46875 51.609375 24.265625 
Q 51.609375 14.546875 45.953125 7.46875 
Q 39.0625 -1.21875 27.15625 -1.21875 
Q 17.390625 -1.21875 11.203125 4.25 
Q 5.03125 9.71875 4.15625 18.75 
z
" id="ArialMT-53"/>
       </defs>
       <use xlink:href="#ArialMT-50"/>
       <use x="55.615234" xlink:href="#ArialMT-46"/>
       <use x="83.398438" xlink:href="#ArialMT-53"/>
      </g>
     </g>
    </g>
    <g id="text_3">
     <!-- -log$_{10}$(FDR) -->
     <g transform="translate(258.766094 247.357476)scale(0.15 -0.15)">
      <defs>
       <path d="M 3.171875 21.484375 
L 3.171875 30.328125 
L 30.171875 30.328125 
L 30.171875 21.484375 
z
" id="ArialMT-45"/>
       <path d="M 6.390625 0 
L 6.390625 71.578125 
L 15.1875 71.578125 
L 15.1875 0 
z
" id="ArialMT-108"/>
       <path d="M 3.328125 25.921875 
Q 3.328125 40.328125 11.328125 47.265625 
Q 18.015625 53.03125 27.640625 53.03125 
Q 38.328125 53.03125 45.109375 46.015625 
Q 51.90625 39.015625 51.90625 26.65625 
Q 51.90625 16.65625 48.90625 10.90625 
Q 45.90625 5.171875 40.15625 2 
Q 34.421875 -1.171875 27.640625 -1.171875 
Q 16.75 -1.171875 10.03125 5.8125 
Q 3.328125 12.796875 3.328125 25.921875 
z
M 12.359375 25.921875 
Q 12.359375 15.96875 16.703125 11.015625 
Q 21.046875 6.0625 27.640625 6.0625 
Q 34.1875 6.0625 38.53125 11.03125 
Q 42.875 16.015625 42.875 26.21875 
Q 42.875 35.84375 38.5 40.796875 
Q 34.125 45.75 27.640625 45.75 
Q 21.046875 45.75 16.703125 40.8125 
Q 12.359375 35.890625 12.359375 25.921875 
z
" id="ArialMT-111"/>
       <path d="M 4.984375 -4.296875 
L 13.53125 -5.5625 
Q 14.0625 -9.515625 16.5 -11.328125 
Q 19.78125 -13.765625 25.4375 -13.765625 
Q 31.546875 -13.765625 34.859375 -11.328125 
Q 38.1875 -8.890625 39.359375 -4.5 
Q 40.046875 -1.8125 39.984375 6.78125 
Q 34.234375 0 25.640625 0 
Q 14.9375 0 9.078125 7.71875 
Q 3.21875 15.4375 3.21875 26.21875 
Q 3.21875 33.640625 5.90625 39.90625 
Q 8.59375 46.1875 13.6875 49.609375 
Q 18.796875 53.03125 25.6875 53.03125 
Q 34.859375 53.03125 40.828125 45.609375 
L 40.828125 51.859375 
L 48.921875 51.859375 
L 48.921875 7.03125 
Q 48.921875 -5.078125 46.453125 -10.125 
Q 44 -15.1875 38.640625 -18.109375 
Q 33.296875 -21.046875 25.484375 -21.046875 
Q 16.21875 -21.046875 10.5 -16.875 
Q 4.78125 -12.703125 4.984375 -4.296875 
z
M 12.25 26.859375 
Q 12.25 16.65625 16.296875 11.96875 
Q 20.359375 7.28125 26.46875 7.28125 
Q 32.515625 7.28125 36.609375 11.9375 
Q 40.71875 16.609375 40.71875 26.5625 
Q 40.71875 36.078125 36.5 40.90625 
Q 32.28125 45.75 26.3125 45.75 
Q 20.453125 45.75 16.34375 40.984375 
Q 12.25 36.234375 12.25 26.859375 
z
" id="ArialMT-103"/>
       <path d="M 12.40625 8.296875 
L 28.515625 8.296875 
L 28.515625 63.921875 
L 10.984375 60.40625 
L 10.984375 69.390625 
L 28.421875 72.90625 
L 38.28125 72.90625 
L 38.28125 8.296875 
L 54.390625 8.296875 
L 54.390625 0 
L 12.40625 0 
z
" id="DejaVuSans-49"/>
       <path d="M 31.78125 66.40625 
Q 24.171875 66.40625 20.328125 58.90625 
Q 16.5 51.421875 16.5 36.375 
Q 16.5 21.390625 20.328125 13.890625 
Q 24.171875 6.390625 31.78125 6.390625 
Q 39.453125 6.390625 43.28125 13.890625 
Q 47.125 21.390625 47.125 36.375 
Q 47.125 51.421875 43.28125 58.90625 
Q 39.453125 66.40625 31.78125 66.40625 
z
M 31.78125 74.21875 
Q 44.046875 74.21875 50.515625 64.515625 
Q 56.984375 54.828125 56.984375 36.375 
Q 56.984375 17.96875 50.515625 8.265625 
Q 44.046875 -1.421875 31.78125 -1.421875 
Q 19.53125 -1.421875 13.0625 8.265625 
Q 6.59375 17.96875 6.59375 36.375 
Q 6.59375 54.828125 13.0625 64.515625 
Q 19.53125 74.21875 31.78125 74.21875 
z
" id="DejaVuSans-48"/>
       <path d="M 23.390625 -21.046875 
Q 16.109375 -11.859375 11.078125 0.4375 
Q 6.0625 12.75 6.0625 25.921875 
Q 6.0625 37.546875 9.8125 48.1875 
Q 14.203125 60.546875 23.390625 72.796875 
L 29.6875 72.796875 
Q 23.78125 62.640625 21.875 58.296875 
Q 18.890625 51.5625 17.1875 44.234375 
Q 15.09375 35.109375 15.09375 25.875 
Q 15.09375 2.390625 29.6875 -21.046875 
z
" id="ArialMT-40"/>
       <path d="M 8.203125 0 
L 8.203125 71.578125 
L 56.5 71.578125 
L 56.5 63.140625 
L 17.671875 63.140625 
L 17.671875 40.96875 
L 51.265625 40.96875 
L 51.265625 32.515625 
L 17.671875 32.515625 
L 17.671875 0 
z
" id="ArialMT-70"/>
       <path d="M 7.71875 0 
L 7.71875 71.578125 
L 32.375 71.578125 
Q 40.71875 71.578125 45.125 70.5625 
Q 51.265625 69.140625 55.609375 65.4375 
Q 61.28125 60.640625 64.078125 53.1875 
Q 66.890625 45.75 66.890625 36.1875 
Q 66.890625 28.03125 64.984375 21.734375 
Q 63.09375 15.4375 60.109375 11.296875 
Q 57.125 7.171875 53.578125 4.796875 
Q 50.046875 2.4375 45.046875 1.21875 
Q 40.046875 0 33.546875 0 
z
M 17.1875 8.453125 
L 32.46875 8.453125 
Q 39.546875 8.453125 43.578125 9.765625 
Q 47.609375 11.078125 50 13.484375 
Q 53.375 16.84375 55.25 22.53125 
Q 57.125 28.21875 57.125 36.328125 
Q 57.125 47.5625 53.4375 53.59375 
Q 49.75 59.625 44.484375 61.671875 
Q 40.671875 63.140625 32.234375 63.140625 
L 17.1875 63.140625 
z
" id="ArialMT-68"/>
       <path d="M 7.859375 0 
L 7.859375 71.578125 
L 39.59375 71.578125 
Q 49.171875 71.578125 54.140625 69.640625 
Q 59.125 67.71875 62.109375 62.828125 
Q 65.09375 57.953125 65.09375 52.046875 
Q 65.09375 44.4375 60.15625 39.203125 
Q 55.21875 33.984375 44.921875 32.5625 
Q 48.6875 30.765625 50.640625 29 
Q 54.78125 25.203125 58.5 19.484375 
L 70.953125 0 
L 59.03125 0 
L 49.5625 14.890625 
Q 45.40625 21.34375 42.71875 24.75 
Q 40.046875 28.171875 37.921875 29.53125 
Q 35.796875 30.90625 33.59375 31.453125 
Q 31.984375 31.78125 28.328125 31.78125 
L 17.328125 31.78125 
L 17.328125 0 
z
M 17.328125 39.984375 
L 37.703125 39.984375 
Q 44.1875 39.984375 47.84375 41.328125 
Q 51.515625 42.671875 53.421875 45.625 
Q 55.328125 48.578125 55.328125 52.046875 
Q 55.328125 57.125 51.640625 60.390625 
Q 47.953125 63.671875 39.984375 63.671875 
L 17.328125 63.671875 
z
" id="ArialMT-82"/>
       <path d="M 12.359375 -21.046875 
L 6.0625 -21.046875 
Q 20.65625 2.390625 20.65625 25.875 
Q 20.65625 35.0625 18.5625 44.09375 
Q 16.890625 51.421875 13.921875 58.15625 
Q 12.015625 62.546875 6.0625 72.796875 
L 12.359375 72.796875 
Q 21.53125 60.546875 25.921875 48.1875 
Q 29.6875 37.546875 29.6875 25.921875 
Q 29.6875 12.75 24.625 0.4375 
Q 19.578125 -11.859375 12.359375 -21.046875 
z
" id="ArialMT-41"/>
      </defs>
      <use transform="translate(0 0.203125)" xlink:href="#ArialMT-45"/>
      <use transform="translate(33.300781 0.203125)" xlink:href="#ArialMT-108"/>
      <use transform="translate(55.517578 0.203125)" xlink:href="#ArialMT-111"/>
      <use transform="translate(111.132812 0.203125)" xlink:href="#ArialMT-103"/>
      <use transform="translate(167.705078 -16.203125)scale(0.7)" xlink:href="#DejaVuSans-49"/>
      <use transform="translate(212.241211 -16.203125)scale(0.7)" xlink:href="#DejaVuSans-48"/>
      <use transform="translate(259.511719 0.203125)" xlink:href="#ArialMT-40"/>
      <use transform="translate(292.8125 0.203125)" xlink:href="#ArialMT-70"/>
      <use transform="translate(353.896484 0.203125)" xlink:href="#ArialMT-68"/>
      <use transform="translate(426.113281 0.203125)" xlink:href="#ArialMT-82"/>
      <use transform="translate(498.330078 0.203125)" xlink:href="#ArialMT-41"/>
     </g>
    </g>
   </g>
   <g id="matplotlib.axis_2">
    <g id="ytick_1">
     <g id="line2d_3">
      <defs>
       <path d="M 0 0 
L -3.5 0 
" id="mccf10304cb" style="stroke:#000000;stroke-width:0.8;"/>
      </defs>
      <g>
       <use style="stroke:#000000;stroke-width:0.8;" x="262.396094" xlink:href="#mccf10304cb" y="196.188581"/>
      </g>
     </g>
     <g id="text_4">
      <!-- cardiac right ventricle morpho. -->
      <g transform="translate(54.492187 201.556941)scale(0.15 -0.15)">
       <defs>
        <path d="M 40.4375 19 
L 49.078125 17.875 
Q 47.65625 8.9375 41.8125 3.875 
Q 35.984375 -1.171875 27.484375 -1.171875 
Q 16.84375 -1.171875 10.375 5.78125 
Q 3.90625 12.75 3.90625 25.734375 
Q 3.90625 34.125 6.6875 40.421875 
Q 9.46875 46.734375 15.15625 49.875 
Q 20.84375 53.03125 27.546875 53.03125 
Q 35.984375 53.03125 41.359375 48.75 
Q 46.734375 44.484375 48.25 36.625 
L 39.703125 35.296875 
Q 38.484375 40.53125 35.375 43.15625 
Q 32.28125 45.796875 27.875 45.796875 
Q 21.234375 45.796875 17.078125 41.03125 
Q 12.9375 36.28125 12.9375 25.984375 
Q 12.9375 15.53125 16.9375 10.796875 
Q 20.953125 6.0625 27.390625 6.0625 
Q 32.5625 6.0625 36.03125 9.234375 
Q 39.5 12.40625 40.4375 19 
z
" id="ArialMT-99"/>
        <path d="M 40.4375 6.390625 
Q 35.546875 2.25 31.03125 0.53125 
Q 26.515625 -1.171875 21.34375 -1.171875 
Q 12.796875 -1.171875 8.203125 3 
Q 3.609375 7.171875 3.609375 13.671875 
Q 3.609375 17.484375 5.34375 20.625 
Q 7.078125 23.78125 9.890625 25.6875 
Q 12.703125 27.59375 16.21875 28.5625 
Q 18.796875 29.25 24.03125 29.890625 
Q 34.671875 31.15625 39.703125 32.90625 
Q 39.75 34.71875 39.75 35.203125 
Q 39.75 40.578125 37.25 42.78125 
Q 33.890625 45.75 27.25 45.75 
Q 21.046875 45.75 18.09375 43.578125 
Q 15.140625 41.40625 13.71875 35.890625 
L 5.125 37.0625 
Q 6.296875 42.578125 8.984375 45.96875 
Q 11.671875 49.359375 16.75 51.1875 
Q 21.828125 53.03125 28.515625 53.03125 
Q 35.15625 53.03125 39.296875 51.46875 
Q 43.453125 49.90625 45.40625 47.53125 
Q 47.359375 45.171875 48.140625 41.546875 
Q 48.578125 39.3125 48.578125 33.453125 
L 48.578125 21.734375 
Q 48.578125 9.46875 49.140625 6.21875 
Q 49.703125 2.984375 51.375 0 
L 42.1875 0 
Q 40.828125 2.734375 40.4375 6.390625 
z
M 39.703125 26.03125 
Q 34.90625 24.078125 25.34375 22.703125 
Q 19.921875 21.921875 17.671875 20.9375 
Q 15.4375 19.96875 14.203125 18.09375 
Q 12.984375 16.21875 12.984375 13.921875 
Q 12.984375 10.40625 15.640625 8.0625 
Q 18.3125 5.71875 23.4375 5.71875 
Q 28.515625 5.71875 32.46875 7.9375 
Q 36.421875 10.15625 38.28125 14.015625 
Q 39.703125 17 39.703125 22.796875 
z
" id="ArialMT-97"/>
        <path d="M 6.5 0 
L 6.5 51.859375 
L 14.40625 51.859375 
L 14.40625 44 
Q 17.4375 49.515625 20 51.265625 
Q 22.5625 53.03125 25.640625 53.03125 
Q 30.078125 53.03125 34.671875 50.203125 
L 31.640625 42.046875 
Q 28.421875 43.953125 25.203125 43.953125 
Q 22.3125 43.953125 20.015625 42.21875 
Q 17.71875 40.484375 16.75 37.40625 
Q 15.28125 32.71875 15.28125 27.15625 
L 15.28125 0 
z
" id="ArialMT-114"/>
        <path d="M 40.234375 0 
L 40.234375 6.546875 
Q 35.296875 -1.171875 25.734375 -1.171875 
Q 19.53125 -1.171875 14.328125 2.25 
Q 9.125 5.671875 6.265625 11.796875 
Q 3.421875 17.921875 3.421875 25.875 
Q 3.421875 33.640625 6 39.96875 
Q 8.59375 46.296875 13.765625 49.65625 
Q 18.953125 53.03125 25.34375 53.03125 
Q 30.03125 53.03125 33.6875 51.046875 
Q 37.359375 49.078125 39.65625 45.90625 
L 39.65625 71.578125 
L 48.390625 71.578125 
L 48.390625 0 
z
M 12.453125 25.875 
Q 12.453125 15.921875 16.640625 10.984375 
Q 20.84375 6.0625 26.5625 6.0625 
Q 32.328125 6.0625 36.34375 10.765625 
Q 40.375 15.484375 40.375 25.140625 
Q 40.375 35.796875 36.265625 40.765625 
Q 32.171875 45.75 26.171875 45.75 
Q 20.3125 45.75 16.375 40.96875 
Q 12.453125 36.1875 12.453125 25.875 
z
" id="ArialMT-100"/>
        <path d="M 6.640625 61.46875 
L 6.640625 71.578125 
L 15.4375 71.578125 
L 15.4375 61.46875 
z
M 6.640625 0 
L 6.640625 51.859375 
L 15.4375 51.859375 
L 15.4375 0 
z
" id="ArialMT-105"/>
        <path id="ArialMT-32"/>
        <path d="M 6.59375 0 
L 6.59375 71.578125 
L 15.375 71.578125 
L 15.375 45.90625 
Q 21.53125 53.03125 30.90625 53.03125 
Q 36.671875 53.03125 40.921875 50.75 
Q 45.171875 48.484375 47 44.484375 
Q 48.828125 40.484375 48.828125 32.859375 
L 48.828125 0 
L 40.046875 0 
L 40.046875 32.859375 
Q 40.046875 39.453125 37.1875 42.453125 
Q 34.328125 45.453125 29.109375 45.453125 
Q 25.203125 45.453125 21.75 43.421875 
Q 18.3125 41.40625 16.84375 37.9375 
Q 15.375 34.46875 15.375 28.375 
L 15.375 0 
z
" id="ArialMT-104"/>
        <path d="M 25.78125 7.859375 
L 27.046875 0.09375 
Q 23.34375 -0.6875 20.40625 -0.6875 
Q 15.625 -0.6875 12.984375 0.828125 
Q 10.359375 2.34375 9.28125 4.8125 
Q 8.203125 7.28125 8.203125 15.1875 
L 8.203125 45.015625 
L 1.765625 45.015625 
L 1.765625 51.859375 
L 8.203125 51.859375 
L 8.203125 64.703125 
L 16.9375 69.96875 
L 16.9375 51.859375 
L 25.78125 51.859375 
L 25.78125 45.015625 
L 16.9375 45.015625 
L 16.9375 14.703125 
Q 16.9375 10.9375 17.40625 9.859375 
Q 17.875 8.796875 18.921875 8.15625 
Q 19.96875 7.515625 21.921875 7.515625 
Q 23.390625 7.515625 25.78125 7.859375 
z
" id="ArialMT-116"/>
        <path d="M 21 0 
L 1.265625 51.859375 
L 10.546875 51.859375 
L 21.6875 20.796875 
Q 23.484375 15.765625 25 10.359375 
Q 26.171875 14.453125 28.265625 20.21875 
L 39.796875 51.859375 
L 48.828125 51.859375 
L 29.203125 0 
z
" id="ArialMT-118"/>
        <path d="M 42.09375 16.703125 
L 51.171875 15.578125 
Q 49.03125 7.625 43.21875 3.21875 
Q 37.40625 -1.171875 28.375 -1.171875 
Q 17 -1.171875 10.328125 5.828125 
Q 3.65625 12.84375 3.65625 25.484375 
Q 3.65625 38.578125 10.390625 45.796875 
Q 17.140625 53.03125 27.875 53.03125 
Q 38.28125 53.03125 44.875 45.953125 
Q 51.46875 38.875 51.46875 26.03125 
Q 51.46875 25.25 51.421875 23.6875 
L 12.75 23.6875 
Q 13.234375 15.140625 17.578125 10.59375 
Q 21.921875 6.0625 28.421875 6.0625 
Q 33.25 6.0625 36.671875 8.59375 
Q 40.09375 11.140625 42.09375 16.703125 
z
M 13.234375 30.90625 
L 42.1875 30.90625 
Q 41.609375 37.453125 38.875 40.71875 
Q 34.671875 45.796875 27.984375 45.796875 
Q 21.921875 45.796875 17.796875 41.75 
Q 13.671875 37.703125 13.234375 30.90625 
z
" id="ArialMT-101"/>
        <path d="M 6.59375 0 
L 6.59375 51.859375 
L 14.5 51.859375 
L 14.5 44.484375 
Q 20.21875 53.03125 31 53.03125 
Q 35.6875 53.03125 39.625 51.34375 
Q 43.5625 49.65625 45.515625 46.921875 
Q 47.46875 44.1875 48.25 40.4375 
Q 48.734375 37.984375 48.734375 31.890625 
L 48.734375 0 
L 39.9375 0 
L 39.9375 31.546875 
Q 39.9375 36.921875 38.90625 39.578125 
Q 37.890625 42.234375 35.28125 43.8125 
Q 32.671875 45.40625 29.15625 45.40625 
Q 23.53125 45.40625 19.453125 41.84375 
Q 15.375 38.28125 15.375 28.328125 
L 15.375 0 
z
" id="ArialMT-110"/>
        <path d="M 6.59375 0 
L 6.59375 51.859375 
L 14.453125 51.859375 
L 14.453125 44.578125 
Q 16.890625 48.390625 20.9375 50.703125 
Q 25 53.03125 30.171875 53.03125 
Q 35.9375 53.03125 39.625 50.640625 
Q 43.3125 48.25 44.828125 43.953125 
Q 50.984375 53.03125 60.84375 53.03125 
Q 68.5625 53.03125 72.703125 48.75 
Q 76.859375 44.484375 76.859375 35.59375 
L 76.859375 0 
L 68.109375 0 
L 68.109375 32.671875 
Q 68.109375 37.9375 67.25 40.25 
Q 66.40625 42.578125 64.15625 43.984375 
Q 61.921875 45.40625 58.890625 45.40625 
Q 53.421875 45.40625 49.796875 41.765625 
Q 46.1875 38.140625 46.1875 30.125 
L 46.1875 0 
L 37.40625 0 
L 37.40625 33.6875 
Q 37.40625 39.546875 35.25 42.46875 
Q 33.109375 45.40625 28.21875 45.40625 
Q 24.515625 45.40625 21.359375 43.453125 
Q 18.21875 41.5 16.796875 37.734375 
Q 15.375 33.984375 15.375 26.90625 
L 15.375 0 
z
" id="ArialMT-109"/>
        <path d="M 6.59375 -19.875 
L 6.59375 51.859375 
L 14.59375 51.859375 
L 14.59375 45.125 
Q 17.4375 49.078125 21 51.046875 
Q 24.5625 53.03125 29.640625 53.03125 
Q 36.28125 53.03125 41.359375 49.609375 
Q 46.4375 46.1875 49.015625 39.953125 
Q 51.609375 33.734375 51.609375 26.3125 
Q 51.609375 18.359375 48.75 11.984375 
Q 45.90625 5.609375 40.453125 2.21875 
Q 35.015625 -1.171875 29 -1.171875 
Q 24.609375 -1.171875 21.109375 0.6875 
Q 17.625 2.546875 15.375 5.375 
L 15.375 -19.875 
z
M 14.546875 25.640625 
Q 14.546875 15.625 18.59375 10.84375 
Q 22.65625 6.0625 28.421875 6.0625 
Q 34.28125 6.0625 38.453125 11.015625 
Q 42.625 15.96875 42.625 26.375 
Q 42.625 36.28125 38.546875 41.203125 
Q 34.46875 46.140625 28.8125 46.140625 
Q 23.1875 46.140625 18.859375 40.890625 
Q 14.546875 35.640625 14.546875 25.640625 
z
" id="ArialMT-112"/>
       </defs>
       <use xlink:href="#ArialMT-99"/>
       <use x="50" xlink:href="#ArialMT-97"/>
       <use x="105.615234" xlink:href="#ArialMT-114"/>
       <use x="138.916016" xlink:href="#ArialMT-100"/>
       <use x="194.53125" xlink:href="#ArialMT-105"/>
       <use x="216.748047" xlink:href="#ArialMT-97"/>
       <use x="272.363281" xlink:href="#ArialMT-99"/>
       <use x="322.363281" xlink:href="#ArialMT-32"/>
       <use x="350.146484" xlink:href="#ArialMT-114"/>
       <use x="383.447266" xlink:href="#ArialMT-105"/>
       <use x="405.664062" xlink:href="#ArialMT-103"/>
       <use x="461.279297" xlink:href="#ArialMT-104"/>
       <use x="516.894531" xlink:href="#ArialMT-116"/>
       <use x="544.677734" xlink:href="#ArialMT-32"/>
       <use x="572.460938" xlink:href="#ArialMT-118"/>
       <use x="622.460938" xlink:href="#ArialMT-101"/>
       <use x="678.076172" xlink:href="#ArialMT-110"/>
       <use x="733.691406" xlink:href="#ArialMT-116"/>
       <use x="761.474609" xlink:href="#ArialMT-114"/>
       <use x="794.775391" xlink:href="#ArialMT-105"/>
       <use x="816.992188" xlink:href="#ArialMT-99"/>
       <use x="866.992188" xlink:href="#ArialMT-108"/>
       <use x="889.208984" xlink:href="#ArialMT-101"/>
       <use x="944.824219" xlink:href="#ArialMT-32"/>
       <use x="972.607422" xlink:href="#ArialMT-109"/>
       <use x="1055.908203" xlink:href="#ArialMT-111"/>
       <use x="1111.523438" xlink:href="#ArialMT-114"/>
       <use x="1144.824219" xlink:href="#ArialMT-112"/>
       <use x="1200.439453" xlink:href="#ArialMT-104"/>
       <use x="1256.054688" xlink:href="#ArialMT-111"/>
       <use x="1311.669922" xlink:href="#ArialMT-46"/>
      </g>
     </g>
    </g>
    <g id="ytick_2">
     <g id="line2d_4">
      <g>
       <use style="stroke:#000000;stroke-width:0.8;" x="262.396094" xlink:href="#mccf10304cb" y="178.771811"/>
      </g>
     </g>
     <g id="text_5">
      <!-- mesenchyme morpho. -->
      <g transform="translate(107.010937 184.14017)scale(0.15 -0.15)">
       <defs>
        <path d="M 3.078125 15.484375 
L 11.765625 16.84375 
Q 12.5 11.625 15.84375 8.84375 
Q 19.1875 6.0625 25.203125 6.0625 
Q 31.25 6.0625 34.171875 8.515625 
Q 37.109375 10.984375 37.109375 14.3125 
Q 37.109375 17.28125 34.515625 19 
Q 32.71875 20.171875 25.53125 21.96875 
Q 15.875 24.421875 12.140625 26.203125 
Q 8.40625 27.984375 6.46875 31.125 
Q 4.546875 34.28125 4.546875 38.09375 
Q 4.546875 41.546875 6.125 44.5 
Q 7.71875 47.46875 10.453125 49.421875 
Q 12.5 50.921875 16.03125 51.96875 
Q 19.578125 53.03125 23.640625 53.03125 
Q 29.734375 53.03125 34.34375 51.265625 
Q 38.96875 49.515625 41.15625 46.5 
Q 43.359375 43.5 44.1875 38.484375 
L 35.59375 37.3125 
Q 35.015625 41.3125 32.203125 43.546875 
Q 29.390625 45.796875 24.265625 45.796875 
Q 18.21875 45.796875 15.625 43.796875 
Q 13.03125 41.796875 13.03125 39.109375 
Q 13.03125 37.40625 14.109375 36.03125 
Q 15.1875 34.625 17.484375 33.6875 
Q 18.796875 33.203125 25.25 31.453125 
Q 34.578125 28.953125 38.25 27.359375 
Q 41.9375 25.78125 44.03125 22.75 
Q 46.140625 19.734375 46.140625 15.234375 
Q 46.140625 10.84375 43.578125 6.953125 
Q 41.015625 3.078125 36.171875 0.953125 
Q 31.34375 -1.171875 25.25 -1.171875 
Q 15.140625 -1.171875 9.84375 3.03125 
Q 4.546875 7.234375 3.078125 15.484375 
z
" id="ArialMT-115"/>
        <path d="M 6.203125 -19.96875 
L 5.21875 -11.71875 
Q 8.109375 -12.5 10.25 -12.5 
Q 13.1875 -12.5 14.9375 -11.515625 
Q 16.703125 -10.546875 17.828125 -8.796875 
Q 18.65625 -7.46875 20.515625 -2.25 
Q 20.75 -1.515625 21.296875 -0.09375 
L 1.609375 51.859375 
L 11.078125 51.859375 
L 21.875 21.828125 
Q 23.96875 16.109375 25.640625 9.8125 
Q 27.15625 15.875 29.25 21.625 
L 40.328125 51.859375 
L 49.125 51.859375 
L 29.390625 -0.875 
Q 26.21875 -9.421875 24.46875 -12.640625 
Q 22.125 -17 19.09375 -19.015625 
Q 16.0625 -21.046875 11.859375 -21.046875 
Q 9.328125 -21.046875 6.203125 -19.96875 
z
" id="ArialMT-121"/>
       </defs>
       <use xlink:href="#ArialMT-109"/>
       <use x="83.300781" xlink:href="#ArialMT-101"/>
       <use x="138.916016" xlink:href="#ArialMT-115"/>
       <use x="188.916016" xlink:href="#ArialMT-101"/>
       <use x="244.53125" xlink:href="#ArialMT-110"/>
       <use x="300.146484" xlink:href="#ArialMT-99"/>
       <use x="350.146484" xlink:href="#ArialMT-104"/>
       <use x="405.761719" xlink:href="#ArialMT-121"/>
       <use x="455.761719" xlink:href="#ArialMT-109"/>
       <use x="539.0625" xlink:href="#ArialMT-101"/>
       <use x="594.677734" xlink:href="#ArialMT-32"/>
       <use x="622.460938" xlink:href="#ArialMT-109"/>
       <use x="705.761719" xlink:href="#ArialMT-111"/>
       <use x="761.376953" xlink:href="#ArialMT-114"/>
       <use x="794.677734" xlink:href="#ArialMT-112"/>
       <use x="850.292969" xlink:href="#ArialMT-104"/>
       <use x="905.908203" xlink:href="#ArialMT-111"/>
       <use x="961.523438" xlink:href="#ArialMT-46"/>
      </g>
     </g>
    </g>
    <g id="ytick_3">
     <g id="line2d_5">
      <g>
       <use style="stroke:#000000;stroke-width:0.8;" x="262.396094" xlink:href="#mccf10304cb" y="161.35504"/>
      </g>
     </g>
     <g id="text_6">
      <!-- cell morpho. -->
      <g transform="translate(173.7 166.723399)scale(0.15 -0.15)">
       <use xlink:href="#ArialMT-99"/>
       <use x="50" xlink:href="#ArialMT-101"/>
       <use x="105.615234" xlink:href="#ArialMT-108"/>
       <use x="127.832031" xlink:href="#ArialMT-108"/>
       <use x="150.048828" xlink:href="#ArialMT-32"/>
       <use x="177.832031" xlink:href="#ArialMT-109"/>
       <use x="261.132812" xlink:href="#ArialMT-111"/>
       <use x="316.748047" xlink:href="#ArialMT-114"/>
       <use x="350.048828" xlink:href="#ArialMT-112"/>
       <use x="405.664062" xlink:href="#ArialMT-104"/>
       <use x="461.279297" xlink:href="#ArialMT-111"/>
       <use x="516.894531" xlink:href="#ArialMT-46"/>
      </g>
     </g>
    </g>
    <g id="ytick_4">
     <g id="line2d_6">
      <g>
       <use style="stroke:#000000;stroke-width:0.8;" x="262.396094" xlink:href="#mccf10304cb" y="143.938269"/>
      </g>
     </g>
     <g id="text_7">
      <!-- neuron proj. morpho. -->
      <g transform="translate(116.160937 149.306628)scale(0.15 -0.15)">
       <defs>
        <path d="M 40.578125 0 
L 40.578125 7.625 
Q 34.515625 -1.171875 24.125 -1.171875 
Q 19.53125 -1.171875 15.546875 0.578125 
Q 11.578125 2.34375 9.640625 5 
Q 7.71875 7.671875 6.9375 11.53125 
Q 6.390625 14.109375 6.390625 19.734375 
L 6.390625 51.859375 
L 15.1875 51.859375 
L 15.1875 23.09375 
Q 15.1875 16.21875 15.71875 13.8125 
Q 16.546875 10.359375 19.234375 8.375 
Q 21.921875 6.390625 25.875 6.390625 
Q 29.828125 6.390625 33.296875 8.421875 
Q 36.765625 10.453125 38.203125 13.9375 
Q 39.65625 17.4375 39.65625 24.078125 
L 39.65625 51.859375 
L 48.4375 51.859375 
L 48.4375 0 
z
" id="ArialMT-117"/>
        <path d="M 6.546875 61.375 
L 6.546875 71.578125 
L 15.328125 71.578125 
L 15.328125 61.375 
z
M -4.59375 -20.125 
L -2.9375 -12.640625 
Q -0.296875 -13.328125 1.21875 -13.328125 
Q 3.90625 -13.328125 5.21875 -11.546875 
Q 6.546875 -9.765625 6.546875 -2.640625 
L 6.546875 51.859375 
L 15.328125 51.859375 
L 15.328125 -2.828125 
Q 15.328125 -12.40625 12.84375 -16.15625 
Q 9.671875 -21.046875 2.296875 -21.046875 
Q -1.265625 -21.046875 -4.59375 -20.125 
z
" id="ArialMT-106"/>
       </defs>
       <use xlink:href="#ArialMT-110"/>
       <use x="55.615234" xlink:href="#ArialMT-101"/>
       <use x="111.230469" xlink:href="#ArialMT-117"/>
       <use x="166.845703" xlink:href="#ArialMT-114"/>
       <use x="200.146484" xlink:href="#ArialMT-111"/>
       <use x="255.761719" xlink:href="#ArialMT-110"/>
       <use x="311.376953" xlink:href="#ArialMT-32"/>
       <use x="339.160156" xlink:href="#ArialMT-112"/>
       <use x="394.775391" xlink:href="#ArialMT-114"/>
       <use x="428.076172" xlink:href="#ArialMT-111"/>
       <use x="483.691406" xlink:href="#ArialMT-106"/>
       <use x="505.908203" xlink:href="#ArialMT-46"/>
       <use x="533.691406" xlink:href="#ArialMT-32"/>
       <use x="561.474609" xlink:href="#ArialMT-109"/>
       <use x="644.775391" xlink:href="#ArialMT-111"/>
       <use x="700.390625" xlink:href="#ArialMT-114"/>
       <use x="733.691406" xlink:href="#ArialMT-112"/>
       <use x="789.306641" xlink:href="#ArialMT-104"/>
       <use x="844.921875" xlink:href="#ArialMT-111"/>
       <use x="900.537109" xlink:href="#ArialMT-46"/>
      </g>
     </g>
    </g>
    <g id="ytick_5">
     <g id="line2d_7">
      <g>
       <use style="stroke:#000000;stroke-width:0.8;" x="262.396094" xlink:href="#mccf10304cb" y="126.521498"/>
      </g>
     </g>
     <g id="text_8">
      <!-- neuron devel. -->
      <g transform="translate(164.503125 131.889858)scale(0.15 -0.15)">
       <use xlink:href="#ArialMT-110"/>
       <use x="55.615234" xlink:href="#ArialMT-101"/>
       <use x="111.230469" xlink:href="#ArialMT-117"/>
       <use x="166.845703" xlink:href="#ArialMT-114"/>
       <use x="200.146484" xlink:href="#ArialMT-111"/>
       <use x="255.761719" xlink:href="#ArialMT-110"/>
       <use x="311.376953" xlink:href="#ArialMT-32"/>
       <use x="339.160156" xlink:href="#ArialMT-100"/>
       <use x="394.775391" xlink:href="#ArialMT-101"/>
       <use x="450.390625" xlink:href="#ArialMT-118"/>
       <use x="500.390625" xlink:href="#ArialMT-101"/>
       <use x="556.005859" xlink:href="#ArialMT-108"/>
       <use x="578.222656" xlink:href="#ArialMT-46"/>
      </g>
     </g>
    </g>
    <g id="ytick_6">
     <g id="line2d_8">
      <g>
       <use style="stroke:#000000;stroke-width:0.8;" x="262.396094" xlink:href="#mccf10304cb" y="109.104728"/>
      </g>
     </g>
     <g id="text_9">
      <!-- cellular component morpho. -->
      <g transform="translate(70.3125 114.473087)scale(0.15 -0.15)">
       <use xlink:href="#ArialMT-99"/>
       <use x="50" xlink:href="#ArialMT-101"/>
       <use x="105.615234" xlink:href="#ArialMT-108"/>
       <use x="127.832031" xlink:href="#ArialMT-108"/>
       <use x="150.048828" xlink:href="#ArialMT-117"/>
       <use x="205.664062" xlink:href="#ArialMT-108"/>
       <use x="227.880859" xlink:href="#ArialMT-97"/>
       <use x="283.496094" xlink:href="#ArialMT-114"/>
       <use x="316.796875" xlink:href="#ArialMT-32"/>
       <use x="344.580078" xlink:href="#ArialMT-99"/>
       <use x="394.580078" xlink:href="#ArialMT-111"/>
       <use x="450.195312" xlink:href="#ArialMT-109"/>
       <use x="533.496094" xlink:href="#ArialMT-112"/>
       <use x="589.111328" xlink:href="#ArialMT-111"/>
       <use x="644.726562" xlink:href="#ArialMT-110"/>
       <use x="700.341797" xlink:href="#ArialMT-101"/>
       <use x="755.957031" xlink:href="#ArialMT-110"/>
       <use x="811.572266" xlink:href="#ArialMT-116"/>
       <use x="839.355469" xlink:href="#ArialMT-32"/>
       <use x="867.138672" xlink:href="#ArialMT-109"/>
       <use x="950.439453" xlink:href="#ArialMT-111"/>
       <use x="1006.054688" xlink:href="#ArialMT-114"/>
       <use x="1039.355469" xlink:href="#ArialMT-112"/>
       <use x="1094.970703" xlink:href="#ArialMT-104"/>
       <use x="1150.585938" xlink:href="#ArialMT-111"/>
       <use x="1206.201172" xlink:href="#ArialMT-46"/>
      </g>
     </g>
    </g>
    <g id="ytick_7">
     <g id="line2d_9">
      <g>
       <use style="stroke:#000000;stroke-width:0.8;" x="262.396094" xlink:href="#mccf10304cb" y="91.687957"/>
      </g>
     </g>
     <g id="text_10">
      <!-- axonogenesis -->
      <g transform="translate(162.832031 97.056316)scale(0.15 -0.15)">
       <defs>
        <path d="M 0.734375 0 
L 19.671875 26.953125 
L 2.15625 51.859375 
L 13.140625 51.859375 
L 21.09375 39.703125 
Q 23.34375 36.234375 24.703125 33.890625 
Q 26.859375 37.109375 28.65625 39.59375 
L 37.40625 51.859375 
L 47.90625 51.859375 
L 29.984375 27.4375 
L 49.265625 0 
L 38.484375 0 
L 27.828125 16.109375 
L 25 20.453125 
L 11.375 0 
z
" id="ArialMT-120"/>
       </defs>
       <use xlink:href="#ArialMT-97"/>
       <use x="55.615234" xlink:href="#ArialMT-120"/>
       <use x="105.615234" xlink:href="#ArialMT-111"/>
       <use x="161.230469" xlink:href="#ArialMT-110"/>
       <use x="216.845703" xlink:href="#ArialMT-111"/>
       <use x="272.460938" xlink:href="#ArialMT-103"/>
       <use x="328.076172" xlink:href="#ArialMT-101"/>
       <use x="383.691406" xlink:href="#ArialMT-110"/>
       <use x="439.306641" xlink:href="#ArialMT-101"/>
       <use x="494.921875" xlink:href="#ArialMT-115"/>
       <use x="544.921875" xlink:href="#ArialMT-105"/>
       <use x="567.138672" xlink:href="#ArialMT-115"/>
      </g>
     </g>
    </g>
    <g id="ytick_8">
     <g id="line2d_10">
      <g>
       <use style="stroke:#000000;stroke-width:0.8;" x="262.396094" xlink:href="#mccf10304cb" y="74.271186"/>
      </g>
     </g>
     <g id="text_11">
      <!-- axon devel. -->
      <g transform="translate(178.680469 79.639546)scale(0.15 -0.15)">
       <use xlink:href="#ArialMT-97"/>
       <use x="55.615234" xlink:href="#ArialMT-120"/>
       <use x="105.615234" xlink:href="#ArialMT-111"/>
       <use x="161.230469" xlink:href="#ArialMT-110"/>
       <use x="216.845703" xlink:href="#ArialMT-32"/>
       <use x="244.628906" xlink:href="#ArialMT-100"/>
       <use x="300.244141" xlink:href="#ArialMT-101"/>
       <use x="355.859375" xlink:href="#ArialMT-118"/>
       <use x="405.859375" xlink:href="#ArialMT-101"/>
       <use x="461.474609" xlink:href="#ArialMT-108"/>
       <use x="483.691406" xlink:href="#ArialMT-46"/>
      </g>
     </g>
    </g>
    <g id="ytick_9">
     <g id="line2d_11">
      <g>
       <use style="stroke:#000000;stroke-width:0.8;" x="262.396094" xlink:href="#mccf10304cb" y="56.854415"/>
      </g>
     </g>
     <g id="text_12">
      <!-- cell morpho. involved in neuron differ. -->
      <g transform="translate(7.2 62.314181)scale(0.15 -0.15)">
       <defs>
        <path d="M 8.6875 0 
L 8.6875 45.015625 
L 0.921875 45.015625 
L 0.921875 51.859375 
L 8.6875 51.859375 
L 8.6875 57.375 
Q 8.6875 62.59375 9.625 65.140625 
Q 10.890625 68.5625 14.078125 70.671875 
Q 17.28125 72.796875 23.046875 72.796875 
Q 26.765625 72.796875 31.25 71.921875 
L 29.9375 64.265625 
Q 27.203125 64.75 24.75 64.75 
Q 20.75 64.75 19.09375 63.03125 
Q 17.4375 61.328125 17.4375 56.640625 
L 17.4375 51.859375 
L 27.546875 51.859375 
L 27.546875 45.015625 
L 17.4375 45.015625 
L 17.4375 0 
z
" id="ArialMT-102"/>
       </defs>
       <use xlink:href="#ArialMT-99"/>
       <use x="50" xlink:href="#ArialMT-101"/>
       <use x="105.615234" xlink:href="#ArialMT-108"/>
       <use x="127.832031" xlink:href="#ArialMT-108"/>
       <use x="150.048828" xlink:href="#ArialMT-32"/>
       <use x="177.832031" xlink:href="#ArialMT-109"/>
       <use x="261.132812" xlink:href="#ArialMT-111"/>
       <use x="316.748047" xlink:href="#ArialMT-114"/>
       <use x="350.048828" xlink:href="#ArialMT-112"/>
       <use x="405.664062" xlink:href="#ArialMT-104"/>
       <use x="461.279297" xlink:href="#ArialMT-111"/>
       <use x="516.894531" xlink:href="#ArialMT-46"/>
       <use x="544.677734" xlink:href="#ArialMT-32"/>
       <use x="572.460938" xlink:href="#ArialMT-105"/>
       <use x="594.677734" xlink:href="#ArialMT-110"/>
       <use x="650.292969" xlink:href="#ArialMT-118"/>
       <use x="700.292969" xlink:href="#ArialMT-111"/>
       <use x="755.908203" xlink:href="#ArialMT-108"/>
       <use x="778.125" xlink:href="#ArialMT-118"/>
       <use x="828.125" xlink:href="#ArialMT-101"/>
       <use x="883.740234" xlink:href="#ArialMT-100"/>
       <use x="939.355469" xlink:href="#ArialMT-32"/>
       <use x="967.138672" xlink:href="#ArialMT-105"/>
       <use x="989.355469" xlink:href="#ArialMT-110"/>
       <use x="1044.970703" xlink:href="#ArialMT-32"/>
       <use x="1072.753906" xlink:href="#ArialMT-110"/>
       <use x="1128.369141" xlink:href="#ArialMT-101"/>
       <use x="1183.984375" xlink:href="#ArialMT-117"/>
       <use x="1239.599609" xlink:href="#ArialMT-114"/>
       <use x="1272.900391" xlink:href="#ArialMT-111"/>
       <use x="1328.515625" xlink:href="#ArialMT-110"/>
       <use x="1384.130859" xlink:href="#ArialMT-32"/>
       <use x="1411.914062" xlink:href="#ArialMT-100"/>
       <use x="1467.529297" xlink:href="#ArialMT-105"/>
       <use x="1489.746094" xlink:href="#ArialMT-102"/>
       <use x="1515.779297" xlink:href="#ArialMT-102"/>
       <use x="1543.5625" xlink:href="#ArialMT-101"/>
       <use x="1599.177734" xlink:href="#ArialMT-114"/>
       <use x="1626.978516" xlink:href="#ArialMT-46"/>
      </g>
     </g>
    </g>
    <g id="ytick_10">
     <g id="line2d_12">
      <g>
       <use style="stroke:#000000;stroke-width:0.8;" x="262.396094" xlink:href="#mccf10304cb" y="39.437645"/>
      </g>
     </g>
     <g id="text_13">
      <!-- neuron differ. -->
      <g transform="translate(168.103125 44.806004)scale(0.15 -0.15)">
       <use xlink:href="#ArialMT-110"/>
       <use x="55.615234" xlink:href="#ArialMT-101"/>
       <use x="111.230469" xlink:href="#ArialMT-117"/>
       <use x="166.845703" xlink:href="#ArialMT-114"/>
       <use x="200.146484" xlink:href="#ArialMT-111"/>
       <use x="255.761719" xlink:href="#ArialMT-110"/>
       <use x="311.376953" xlink:href="#ArialMT-32"/>
       <use x="339.160156" xlink:href="#ArialMT-100"/>
       <use x="394.775391" xlink:href="#ArialMT-105"/>
       <use x="416.992188" xlink:href="#ArialMT-102"/>
       <use x="443.025391" xlink:href="#ArialMT-102"/>
       <use x="470.808594" xlink:href="#ArialMT-101"/>
       <use x="526.423828" xlink:href="#ArialMT-114"/>
       <use x="554.224609" xlink:href="#ArialMT-46"/>
      </g>
     </g>
    </g>
   </g>
   <g id="patch_23">
    <path d="M 262.396094 211.689507 
L 262.396094 23.936719 
" style="fill:none;stroke:#000000;stroke-linecap:square;stroke-linejoin:miter;stroke-width:0.8;"/>
   </g>
   <g id="patch_24">
    <path d="M 334.936094 211.689507 
L 334.936094 23.936719 
" style="fill:none;"/>
   </g>
   <g id="patch_25">
    <path d="M 262.396094 211.689507 
L 334.936094 211.689507 
" style="fill:none;stroke:#000000;stroke-linecap:square;stroke-linejoin:miter;stroke-width:0.8;"/>
   </g>
   <g id="patch_26">
    <path d="M 262.396094 23.936719 
L 334.936094 23.936719 
" style="fill:none;"/>
   </g>
   <g id="text_14">
    <!-- 1 -->
    <g transform="translate(294.495391 17.936719)scale(0.15 -0.15)">
     <defs>
      <path d="M 37.25 0 
L 28.46875 0 
L 28.46875 56 
Q 25.296875 52.984375 20.140625 49.953125 
Q 14.984375 46.921875 10.890625 45.40625 
L 10.890625 53.90625 
Q 18.265625 57.375 23.78125 62.296875 
Q 29.296875 67.234375 31.59375 71.875 
L 37.25 71.875 
z
" id="ArialMT-49"/>
     </defs>
     <use xlink:href="#ArialMT-49"/>
    </g>
   </g>
  </g>
 </g>
 <defs>
  <clipPath id="p787c728d61">
   <rect height="187.752788" width="72.54" x="262.396094" y="23.936719"/>
  </clipPath>
 </defs>
</svg>
